<svg xmlns="http://www.w3.org/2000/svg" xmlns:xlink="http://www.w3.org/1999/xlink" width="375" viewBox="0 0 375 150" height="150" version="1.0"><defs><g id="h"><path d="M 19.46875 -8.890625 C 19.238281 -8.398438 18.945312 -7.816406 18.59375 -7.140625 C 18.238281 -6.460938 17.835938 -5.757812 17.390625 -5.03125 C 16.941406 -4.3125 16.4375 -3.59375 15.875 -2.875 C 15.320312 -2.15625 14.71875 -1.507812 14.0625 -0.9375 C 13.414062 -0.375 12.722656 0.0820312 11.984375 0.4375 C 11.242188 0.789062 10.457031 0.96875 9.625 0.96875 C 8.34375 0.96875 7.238281 0.570312 6.3125 -0.21875 C 5.394531 -1.007812 4.613281 -2.046875 3.96875 -3.328125 C 3.332031 -4.617188 2.816406 -6.082031 2.421875 -7.71875 C 2.023438 -9.351562 1.71875 -11.019531 1.5 -12.71875 C 1.289062 -14.414062 1.148438 -16.066406 1.078125 -17.671875 C 1.003906 -19.273438 0.96875 -20.695312 0.96875 -21.9375 C 0.96875 -23.738281 1.023438 -25.597656 1.140625 -27.515625 C 1.253906 -29.441406 1.4375 -31.328125 1.6875 -33.171875 C 1.945312 -35.015625 2.273438 -36.757812 2.671875 -38.40625 C 3.066406 -40.050781 3.535156 -41.492188 4.078125 -42.734375 C 4.628906 -43.972656 5.257812 -44.957031 5.96875 -45.6875 C 6.675781 -46.414062 7.476562 -46.78125 8.375 -46.78125 C 9.082031 -46.78125 9.71875 -46.613281 10.28125 -46.28125 C 10.84375 -45.945312 11.316406 -45.40625 11.703125 -44.65625 C 12.085938 -43.90625 12.382812 -42.929688 12.59375 -41.734375 C 12.8125 -40.535156 12.921875 -39.070312 12.921875 -37.34375 C 12.921875 -35.207031 12.695312 -33 12.25 -30.71875 C 11.800781 -28.4375 11.191406 -26.140625 10.421875 -23.828125 C 9.648438 -21.523438 8.738281 -19.222656 7.6875 -16.921875 C 6.644531 -14.617188 5.523438 -12.378906 4.328125 -10.203125 C 4.867188 -7.484375 5.585938 -5.347656 6.484375 -3.796875 C 7.378906 -2.242188 8.457031 -1.46875 9.71875 -1.46875 C 10.570312 -1.46875 11.394531 -1.804688 12.1875 -2.484375 C 12.976562 -3.160156 13.703125 -3.957031 14.359375 -4.875 C 15.023438 -5.789062 15.609375 -6.722656 16.109375 -7.671875 C 16.617188 -8.628906 17.015625 -9.398438 17.296875 -9.984375 C 17.398438 -10.191406 17.546875 -10.351562 17.734375 -10.46875 C 17.929688 -10.59375 18.144531 -10.65625 18.375 -10.65625 C 18.738281 -10.65625 19.035156 -10.523438 19.265625 -10.265625 C 19.492188 -10.003906 19.609375 -9.71875 19.609375 -9.40625 C 19.609375 -9.269531 19.5625 -9.097656 19.46875 -8.890625 Z M 3.40625 -21.78125 C 3.40625 -20.414062 3.4375 -19.097656 3.5 -17.828125 C 3.5625 -16.566406 3.644531 -15.363281 3.75 -14.21875 C 4.644531 -15.945312 5.5 -17.789062 6.3125 -19.75 C 7.132812 -21.707031 7.851562 -23.6875 8.46875 -25.6875 C 9.09375 -27.6875 9.585938 -29.671875 9.953125 -31.640625 C 10.328125 -33.617188 10.515625 -35.507812 10.515625 -37.3125 C 10.515625 -39.832031 10.3125 -41.640625 9.90625 -42.734375 C 9.5 -43.828125 8.957031 -44.375 8.28125 -44.375 C 7.832031 -44.375 7.398438 -44.0625 6.984375 -43.4375 C 6.566406 -42.820312 6.175781 -41.976562 5.8125 -40.90625 C 5.445312 -39.832031 5.113281 -38.566406 4.8125 -37.109375 C 4.507812 -35.660156 4.253906 -34.101562 4.046875 -32.4375 C 3.847656 -30.769531 3.691406 -29.023438 3.578125 -27.203125 C 3.460938 -25.390625 3.40625 -23.582031 3.40625 -21.78125 Z M 3.40625 -21.78125"/></g><g id="i"><path d="M 13.15625 0.453125 C 13.90625 -0.296875 14.664062 -1.0625 15.4375 -1.84375 C 16.207031 -2.625 16.953125 -3.441406 17.671875 -4.296875 C 18.398438 -5.148438 19.078125 -6.039062 19.703125 -6.96875 C 20.335938 -7.90625 20.898438 -8.894531 21.390625 -9.9375 C 21.503906 -10.175781 21.65625 -10.351562 21.84375 -10.46875 C 22.039062 -10.59375 22.253906 -10.65625 22.484375 -10.65625 C 22.847656 -10.65625 23.140625 -10.523438 23.359375 -10.265625 C 23.585938 -10.003906 23.703125 -9.71875 23.703125 -9.40625 C 23.703125 -9.226562 23.671875 -9.066406 23.609375 -8.921875 C 22.953125 -7.523438 22.191406 -6.25 21.328125 -5.09375 C 20.472656 -3.945312 19.578125 -2.851562 18.640625 -1.8125 C 17.703125 -0.769531 16.75 0.234375 15.78125 1.203125 C 14.820312 2.171875 13.90625 3.148438 13.03125 4.140625 C 12.9375 5.617188 12.929688 7.097656 13.015625 8.578125 C 13.109375 10.066406 13.15625 11.644531 13.15625 13.3125 C 13.15625 14.675781 13.109375 16.039062 13.015625 17.40625 C 12.929688 18.78125 12.789062 20.09375 12.59375 21.34375 C 12.40625 22.601562 12.144531 23.773438 11.8125 24.859375 C 11.488281 25.953125 11.066406 26.898438 10.546875 27.703125 C 10.035156 28.503906 9.4375 29.132812 8.75 29.59375 C 8.070312 30.050781 7.273438 30.28125 6.359375 30.28125 C 4.835938 30.28125 3.671875 29.753906 2.859375 28.703125 C 2.046875 27.660156 1.640625 26.195312 1.640625 24.3125 C 1.640625 23.289062 1.75 22.191406 1.96875 21.015625 C 2.195312 19.835938 2.515625 18.625 2.921875 17.375 C 3.328125 16.125 3.8125 14.851562 4.375 13.5625 C 4.945312 12.28125 5.5625 11.03125 6.21875 9.8125 C 6.882812 8.59375 7.59375 7.429688 8.34375 6.328125 C 9.09375 5.234375 9.851562 4.238281 10.625 3.34375 C 10.664062 2.3125 10.710938 1.242188 10.765625 0.140625 C 10.816406 -0.960938 10.875 -1.984375 10.9375 -2.921875 C 10.382812 -1.929688 9.695312 -1.132812 8.875 -0.53125 C 8.050781 0.0625 7.144531 0.359375 6.15625 0.359375 C 4.53125 0.359375 3.257812 -0.1875 2.34375 -1.28125 C 1.425781 -2.375 0.96875 -3.875 0.96875 -5.78125 C 0.96875 -7.164062 1.097656 -8.429688 1.359375 -9.578125 C 1.628906 -10.722656 1.914062 -11.707031 2.21875 -12.53125 C 2.53125 -13.351562 2.816406 -13.984375 3.078125 -14.421875 C 3.335938 -14.859375 3.46875 -15.066406 3.46875 -15.046875 C 3.695312 -15.410156 4.023438 -15.59375 4.453125 -15.59375 C 4.816406 -15.59375 5.109375 -15.46875 5.328125 -15.21875 C 5.554688 -14.976562 5.671875 -14.695312 5.671875 -14.375 C 5.671875 -14.132812 5.609375 -13.921875 5.484375 -13.734375 C 5.503906 -13.753906 5.398438 -13.578125 5.171875 -13.203125 C 4.953125 -12.828125 4.707031 -12.285156 4.4375 -11.578125 C 4.175781 -10.867188 3.929688 -10.023438 3.703125 -9.046875 C 3.484375 -8.066406 3.375 -6.988281 3.375 -5.8125 C 3.375 -4.632812 3.585938 -3.710938 4.015625 -3.046875 C 4.441406 -2.378906 5.132812 -2.046875 6.09375 -2.046875 C 7.3125 -2.046875 8.410156 -2.945312 9.390625 -4.75 C 10.378906 -6.5625 11.21875 -9.191406 11.90625 -12.640625 C 11.945312 -12.921875 12.070312 -13.148438 12.28125 -13.328125 C 12.5 -13.515625 12.757812 -13.609375 13.0625 -13.609375 C 13.40625 -13.609375 13.691406 -13.488281 13.921875 -13.25 C 14.160156 -13.007812 14.28125 -12.722656 14.28125 -12.390625 C 14.28125 -12.316406 14.234375 -11.929688 14.140625 -11.234375 C 14.054688 -10.546875 13.957031 -9.625 13.84375 -8.46875 C 13.726562 -7.3125 13.601562 -5.96875 13.46875 -4.4375 C 13.34375 -2.914062 13.238281 -1.285156 13.15625 0.453125 Z M 10.59375 7.25 C 9.625 8.632812 8.738281 10.097656 7.9375 11.640625 C 7.132812 13.179688 6.441406 14.710938 5.859375 16.234375 C 5.285156 17.753906 4.835938 19.207031 4.515625 20.59375 C 4.203125 21.988281 4.046875 23.226562 4.046875 24.3125 C 4.046875 25.425781 4.226562 26.296875 4.59375 26.921875 C 4.957031 27.554688 5.53125 27.875 6.3125 27.875 C 7.019531 27.875 7.644531 27.523438 8.1875 26.828125 C 8.738281 26.140625 9.203125 25.148438 9.578125 23.859375 C 9.953125 22.578125 10.234375 21.019531 10.421875 19.1875 C 10.617188 17.363281 10.71875 15.320312 10.71875 13.0625 C 10.71875 12.132812 10.703125 11.203125 10.671875 10.265625 C 10.640625 9.328125 10.613281 8.320312 10.59375 7.25 Z M 10.59375 7.25"/></g><g id="j"><path d="M 4.59375 -13.1875 C 4.5 -12.601562 4.390625 -12.0625 4.265625 -11.5625 C 4.140625 -11.0625 4.015625 -10.625 3.890625 -10.25 C 3.773438 -9.875 3.675781 -9.566406 3.59375 -9.328125 C 3.507812 -9.097656 3.457031 -8.972656 3.4375 -8.953125 C 3.21875 -8.460938 2.84375 -8.21875 2.3125 -8.21875 C 2.007812 -8.21875 1.726562 -8.328125 1.46875 -8.546875 C 1.21875 -8.773438 1.09375 -9.0625 1.09375 -9.40625 C 1.09375 -9.53125 1.113281 -9.625 1.15625 -9.6875 C 1.195312 -9.75 1.257812 -9.875 1.34375 -10.0625 C 1.425781 -10.257812 1.53125 -10.582031 1.65625 -11.03125 C 1.789062 -11.476562 1.957031 -12.175781 2.15625 -13.125 C 1.789062 -13.125 1.414062 -13.132812 1.03125 -13.15625 C 0.644531 -13.175781 0.285156 -13.25 -0.046875 -13.375 C -0.378906 -13.507812 -0.648438 -13.710938 -0.859375 -13.984375 C -1.078125 -14.265625 -1.1875 -14.648438 -1.1875 -15.140625 C -1.1875 -15.503906 -1.082031 -15.992188 -0.875 -16.609375 C -0.675781 -17.234375 -0.40625 -17.84375 -0.0625 -18.4375 C 0.28125 -19.039062 0.664062 -19.5625 1.09375 -20 C 1.519531 -20.4375 1.945312 -20.65625 2.375 -20.65625 C 2.863281 -20.65625 3.265625 -20.472656 3.578125 -20.109375 C 3.890625 -19.742188 4.128906 -19.300781 4.296875 -18.78125 C 4.472656 -18.257812 4.597656 -17.707031 4.671875 -17.125 C 4.742188 -16.550781 4.78125 -16.050781 4.78125 -15.625 C 5.144531 -15.625 5.503906 -15.628906 5.859375 -15.640625 C 6.210938 -15.648438 6.546875 -15.65625 6.859375 -15.65625 C 8.078125 -15.65625 9.007812 -15.382812 9.65625 -14.84375 C 10.300781 -14.3125 10.625 -13.4375 10.625 -12.21875 C 10.625 -11.726562 10.585938 -11.210938 10.515625 -10.671875 C 10.453125 -10.140625 10.378906 -9.59375 10.296875 -9.03125 C 10.210938 -8.46875 10.140625 -7.90625 10.078125 -7.34375 C 10.015625 -6.789062 9.984375 -6.242188 9.984375 -5.703125 C 9.984375 -4.941406 10.085938 -4.304688 10.296875 -3.796875 C 10.515625 -3.296875 10.78125 -2.894531 11.09375 -2.59375 C 11.414062 -2.300781 11.757812 -2.09375 12.125 -1.96875 C 12.488281 -1.851562 12.820312 -1.796875 13.125 -1.796875 C 14.039062 -1.796875 14.90625 -2.09375 15.71875 -2.6875 C 16.53125 -3.289062 17.28125 -4.015625 17.96875 -4.859375 C 18.65625 -5.703125 19.269531 -6.59375 19.8125 -7.53125 C 20.351562 -8.476562 20.804688 -9.304688 21.171875 -10.015625 C 21.273438 -10.203125 21.421875 -10.347656 21.609375 -10.453125 C 21.804688 -10.566406 22.015625 -10.625 22.234375 -10.625 C 22.617188 -10.625 22.914062 -10.5 23.125 -10.25 C 23.34375 -10 23.453125 -9.726562 23.453125 -9.4375 C 23.453125 -9.21875 23.410156 -9.023438 23.328125 -8.859375 C 22.828125 -7.984375 22.25 -6.992188 21.59375 -5.890625 C 20.945312 -4.785156 20.207031 -3.75 19.375 -2.78125 C 18.539062 -1.820312 17.601562 -1.007812 16.5625 -0.34375 C 15.53125 0.3125 14.394531 0.640625 13.15625 0.640625 C 12.382812 0.640625 11.65625 0.492188 10.96875 0.203125 C 10.28125 -0.078125 9.6875 -0.488281 9.1875 -1.03125 C 8.6875 -1.582031 8.285156 -2.257812 7.984375 -3.0625 C 7.691406 -3.863281 7.546875 -4.769531 7.546875 -5.78125 C 7.546875 -6.84375 7.648438 -7.90625 7.859375 -8.96875 C 8.078125 -10.03125 8.1875 -11.039062 8.1875 -12 C 8.1875 -12.40625 8.09375 -12.707031 7.90625 -12.90625 C 7.726562 -13.113281 7.328125 -13.21875 6.703125 -13.21875 C 6.398438 -13.21875 6.070312 -13.21875 5.71875 -13.21875 C 5.375 -13.21875 5 -13.207031 4.59375 -13.1875 Z M 2.4375 -15.5625 C 2.4375 -15.707031 2.429688 -15.898438 2.421875 -16.140625 C 2.410156 -16.390625 2.390625 -16.632812 2.359375 -16.875 C 2.328125 -17.113281 2.285156 -17.316406 2.234375 -17.484375 C 2.179688 -17.648438 2.117188 -17.734375 2.046875 -17.734375 C 1.984375 -17.734375 1.90625 -17.65625 1.8125 -17.5 C 1.71875 -17.34375 1.613281 -17.148438 1.5 -16.921875 C 1.394531 -16.703125 1.300781 -16.460938 1.21875 -16.203125 C 1.132812 -15.941406 1.070312 -15.726562 1.03125 -15.5625 Z M 2.4375 -15.5625"/></g><g id="k"><path d="M 6.453125 -25.1875 C 6.453125 -24.375 6.164062 -23.679688 5.59375 -23.109375 C 5.03125 -22.546875 4.34375 -22.265625 3.53125 -22.265625 C 2.71875 -22.265625 2.023438 -22.546875 1.453125 -23.109375 C 0.890625 -23.679688 0.609375 -24.375 0.609375 -25.1875 C 0.609375 -25.59375 0.679688 -25.972656 0.828125 -26.328125 C 0.984375 -26.679688 1.191406 -26.988281 1.453125 -27.25 C 1.722656 -27.519531 2.035156 -27.726562 2.390625 -27.875 C 2.742188 -28.03125 3.125 -28.109375 3.53125 -28.109375 C 3.9375 -28.109375 4.316406 -28.03125 4.671875 -27.875 C 5.023438 -27.726562 5.332031 -27.519531 5.59375 -27.25 C 5.863281 -26.988281 6.070312 -26.679688 6.21875 -26.328125 C 6.375 -25.972656 6.453125 -25.59375 6.453125 -25.1875 Z M 1.25 -6.390625 C 1.25 -9.460938 1.441406 -12.53125 1.828125 -15.59375 C 1.867188 -15.894531 2 -16.15625 2.21875 -16.375 C 2.445312 -16.601562 2.742188 -16.71875 3.109375 -16.71875 C 3.429688 -16.71875 3.695312 -16.59375 3.90625 -16.34375 C 4.125 -16.101562 4.234375 -15.820312 4.234375 -15.5 C 4.234375 -15.363281 4.207031 -14.972656 4.15625 -14.328125 C 4.101562 -13.691406 4.035156 -12.929688 3.953125 -12.046875 C 3.878906 -11.160156 3.816406 -10.21875 3.765625 -9.21875 C 3.710938 -8.226562 3.6875 -7.316406 3.6875 -6.484375 C 3.6875 -5.347656 3.796875 -4.429688 4.015625 -3.734375 C 4.242188 -3.035156 4.535156 -2.492188 4.890625 -2.109375 C 5.242188 -1.734375 5.617188 -1.476562 6.015625 -1.34375 C 6.410156 -1.21875 6.789062 -1.15625 7.15625 -1.15625 C 7.75 -1.15625 8.367188 -1.367188 9.015625 -1.796875 C 9.660156 -2.222656 10.316406 -2.820312 10.984375 -3.59375 C 11.660156 -4.363281 12.335938 -5.285156 13.015625 -6.359375 C 13.703125 -7.441406 14.378906 -8.648438 15.046875 -9.984375 C 15.148438 -10.191406 15.296875 -10.351562 15.484375 -10.46875 C 15.679688 -10.59375 15.898438 -10.65625 16.140625 -10.65625 C 16.484375 -10.65625 16.765625 -10.523438 16.984375 -10.265625 C 17.210938 -10.003906 17.328125 -9.726562 17.328125 -9.4375 C 17.328125 -9.21875 17.285156 -9.035156 17.203125 -8.890625 C 16.941406 -8.398438 16.617188 -7.800781 16.234375 -7.09375 C 15.847656 -6.382812 15.410156 -5.65625 14.921875 -4.90625 C 14.429688 -4.15625 13.890625 -3.410156 13.296875 -2.671875 C 12.710938 -1.941406 12.085938 -1.28125 11.421875 -0.6875 C 10.753906 -0.101562 10.054688 0.367188 9.328125 0.734375 C 8.609375 1.097656 7.875 1.28125 7.125 1.28125 C 6.15625 1.28125 5.304688 1.078125 4.578125 0.671875 C 3.859375 0.265625 3.242188 -0.273438 2.734375 -0.953125 C 2.234375 -1.640625 1.859375 -2.445312 1.609375 -3.375 C 1.367188 -4.3125 1.25 -5.316406 1.25 -6.390625 Z M 4.65625 -25.1875 C 4.65625 -25.488281 4.539062 -25.75 4.3125 -25.96875 C 4.09375 -26.195312 3.832031 -26.3125 3.53125 -26.3125 C 3.226562 -26.3125 2.96875 -26.195312 2.75 -25.96875 C 2.539062 -25.75 2.4375 -25.488281 2.4375 -25.1875 C 2.4375 -24.882812 2.539062 -24.625 2.75 -24.40625 C 2.96875 -24.195312 3.226562 -24.09375 3.53125 -24.09375 C 3.832031 -24.09375 4.09375 -24.195312 4.3125 -24.40625 C 4.539062 -24.625 4.65625 -24.882812 4.65625 -25.1875 Z M 4.65625 -25.1875"/></g><g id="l"><path d="M 22.203125 -8.890625 C 22.078125 -8.648438 21.859375 -8.21875 21.546875 -7.59375 C 21.234375 -6.976562 20.8125 -6.28125 20.28125 -5.5 C 19.757812 -4.71875 19.132812 -3.910156 18.40625 -3.078125 C 17.6875 -2.242188 16.851562 -1.476562 15.90625 -0.78125 C 14.96875 -0.09375 13.914062 0.472656 12.75 0.921875 C 11.582031 1.378906 10.316406 1.609375 8.953125 1.609375 C 7.734375 1.609375 6.648438 1.382812 5.703125 0.9375 C 4.765625 0.5 3.960938 -0.117188 3.296875 -0.921875 C 2.640625 -1.722656 2.140625 -2.664062 1.796875 -3.75 C 1.453125 -4.84375 1.28125 -6.050781 1.28125 -7.375 C 1.28125 -8.65625 1.460938 -9.859375 1.828125 -10.984375 C 2.191406 -12.109375 2.6875 -13.085938 3.3125 -13.921875 C 3.945312 -14.753906 4.679688 -15.410156 5.515625 -15.890625 C 6.347656 -16.378906 7.238281 -16.625 8.1875 -16.625 C 8.882812 -16.625 9.519531 -16.5 10.09375 -16.25 C 10.675781 -16 11.164062 -15.671875 11.5625 -15.265625 C 11.957031 -14.859375 12.265625 -14.410156 12.484375 -13.921875 C 12.710938 -13.429688 12.828125 -12.941406 12.828125 -12.453125 C 12.828125 -11.972656 12.769531 -11.53125 12.65625 -11.125 C 12.539062 -10.71875 12.390625 -10.359375 12.203125 -10.046875 C 12.023438 -9.742188 11.816406 -9.5 11.578125 -9.3125 C 11.347656 -9.132812 11.113281 -9.046875 10.875 -9.046875 C 10.507812 -9.046875 10.210938 -9.160156 9.984375 -9.390625 C 9.765625 -9.628906 9.65625 -9.921875 9.65625 -10.265625 C 9.65625 -10.429688 9.691406 -10.578125 9.765625 -10.703125 C 9.835938 -10.835938 9.921875 -10.972656 10.015625 -11.109375 C 10.117188 -11.253906 10.207031 -11.425781 10.28125 -11.625 C 10.351562 -11.832031 10.390625 -12.097656 10.390625 -12.421875 C 10.390625 -12.867188 10.179688 -13.273438 9.765625 -13.640625 C 9.347656 -14.003906 8.820312 -14.1875 8.1875 -14.1875 C 7.582031 -14.1875 7.003906 -14.003906 6.453125 -13.640625 C 5.910156 -13.273438 5.4375 -12.785156 5.03125 -12.171875 C 4.625 -11.566406 4.296875 -10.851562 4.046875 -10.03125 C 3.804688 -9.207031 3.6875 -8.332031 3.6875 -7.40625 C 3.6875 -6.53125 3.789062 -5.695312 4 -4.90625 C 4.21875 -4.113281 4.539062 -3.410156 4.96875 -2.796875 C 5.394531 -2.191406 5.9375 -1.707031 6.59375 -1.34375 C 7.25 -0.976562 8.023438 -0.796875 8.921875 -0.796875 C 10.078125 -0.796875 11.144531 -1.003906 12.125 -1.421875 C 13.113281 -1.835938 14.015625 -2.367188 14.828125 -3.015625 C 15.640625 -3.660156 16.351562 -4.359375 16.96875 -5.109375 C 17.59375 -5.867188 18.125 -6.585938 18.5625 -7.265625 C 19 -7.941406 19.335938 -8.53125 19.578125 -9.03125 C 19.828125 -9.53125 19.972656 -9.847656 20.015625 -9.984375 C 20.097656 -10.191406 20.238281 -10.351562 20.4375 -10.46875 C 20.644531 -10.59375 20.867188 -10.65625 21.109375 -10.65625 C 21.472656 -10.65625 21.765625 -10.523438 21.984375 -10.265625 C 22.210938 -10.003906 22.328125 -9.71875 22.328125 -9.40625 C 22.328125 -9.269531 22.285156 -9.097656 22.203125 -8.890625 Z M 22.203125 -8.890625"/></g><g id="n"><path d="M 3.71875 1.578125 C 5.300781 0.867188 6.738281 0.0546875 8.03125 -0.859375 C 9.332031 -1.785156 10.488281 -2.753906 11.5 -3.765625 C 12.519531 -4.785156 13.382812 -5.820312 14.09375 -6.875 C 14.8125 -7.9375 15.382812 -8.945312 15.8125 -9.90625 C 16.007812 -10.382812 16.375 -10.625 16.90625 -10.625 C 17.269531 -10.625 17.5625 -10.5 17.78125 -10.25 C 18.007812 -10 18.125 -9.726562 18.125 -9.4375 C 18.125 -9.257812 18.09375 -9.097656 18.03125 -8.953125 C 17.5625 -7.898438 16.960938 -6.8125 16.234375 -5.6875 C 15.503906 -4.570312 14.617188 -3.472656 13.578125 -2.390625 C 12.546875 -1.304688 11.332031 -0.265625 9.9375 0.734375 C 8.550781 1.742188 6.960938 2.664062 5.171875 3.5 C 6.316406 4.695312 7.316406 6.023438 8.171875 7.484375 C 9.035156 8.953125 9.75 10.476562 10.3125 12.0625 C 10.882812 13.644531 11.3125 15.242188 11.59375 16.859375 C 11.882812 18.472656 12.03125 20.019531 12.03125 21.5 C 12.03125 22.84375 11.90625 24.109375 11.65625 25.296875 C 11.414062 26.484375 11.050781 27.515625 10.5625 28.390625 C 10.082031 29.265625 9.5 29.953125 8.8125 30.453125 C 8.132812 30.960938 7.359375 31.21875 6.484375 31.21875 C 5.203125 31.21875 4.207031 30.738281 3.5 29.78125 C 2.789062 28.832031 2.269531 27.519531 1.9375 25.84375 C 1.601562 24.164062 1.410156 22.1875 1.359375 19.90625 C 1.304688 17.625 1.28125 15.148438 1.28125 12.484375 C 1.28125 11.148438 1.28125 9.601562 1.28125 7.84375 C 1.28125 6.082031 1.285156 4.191406 1.296875 2.171875 C 1.304688 0.148438 1.316406 -1.960938 1.328125 -4.171875 C 1.335938 -6.390625 1.351562 -8.613281 1.375 -10.84375 C 1.394531 -13.070312 1.414062 -15.257812 1.4375 -17.40625 C 1.457031 -19.550781 1.492188 -21.585938 1.546875 -23.515625 C 1.609375 -27.191406 1.734375 -30.472656 1.921875 -33.359375 C 2.117188 -36.253906 2.429688 -38.691406 2.859375 -40.671875 C 3.285156 -42.660156 3.863281 -44.175781 4.59375 -45.21875 C 5.332031 -46.257812 6.269531 -46.78125 7.40625 -46.78125 C 8.3125 -46.78125 9.070312 -46.523438 9.6875 -46.015625 C 10.3125 -45.515625 10.816406 -44.84375 11.203125 -44 C 11.585938 -43.15625 11.863281 -42.164062 12.03125 -41.03125 C 12.195312 -39.894531 12.28125 -38.707031 12.28125 -37.46875 C 12.28125 -34.863281 12.054688 -32.34375 11.609375 -29.90625 C 11.160156 -27.46875 10.550781 -25.101562 9.78125 -22.8125 C 9.007812 -20.519531 8.101562 -18.28125 7.0625 -16.09375 C 6.03125 -13.914062 4.925781 -11.769531 3.75 -9.65625 C 3.75 -8.78125 3.75 -7.832031 3.75 -6.8125 C 3.75 -5.800781 3.75 -4.785156 3.75 -3.765625 C 3.75 -2.753906 3.742188 -1.78125 3.734375 -0.84375 C 3.722656 0.0820312 3.71875 0.890625 3.71875 1.578125 Z M 3.8125 -14.59375 C 4.695312 -16.238281 5.503906 -17.972656 6.234375 -19.796875 C 6.972656 -21.628906 7.609375 -23.519531 8.140625 -25.46875 C 8.679688 -27.414062 9.097656 -29.40625 9.390625 -31.4375 C 9.691406 -33.46875 9.84375 -35.507812 9.84375 -37.5625 C 9.84375 -38.59375 9.796875 -39.523438 9.703125 -40.359375 C 9.609375 -41.191406 9.457031 -41.898438 9.25 -42.484375 C 9.050781 -43.078125 8.796875 -43.539062 8.484375 -43.875 C 8.171875 -44.207031 7.8125 -44.375 7.40625 -44.375 C 6.976562 -44.375 6.601562 -44.113281 6.28125 -43.59375 C 5.96875 -43.082031 5.691406 -42.398438 5.453125 -41.546875 C 5.210938 -40.691406 5.015625 -39.707031 4.859375 -38.59375 C 4.703125 -37.476562 4.566406 -36.316406 4.453125 -35.109375 C 4.347656 -33.898438 4.265625 -32.691406 4.203125 -31.484375 C 4.140625 -30.273438 4.09375 -29.140625 4.0625 -28.078125 C 4.03125 -27.023438 4.007812 -26.09375 4 -25.28125 C 3.988281 -24.46875 3.984375 -23.859375 3.984375 -23.453125 C 3.960938 -22.597656 3.941406 -21.835938 3.921875 -21.171875 C 3.910156 -20.503906 3.894531 -19.847656 3.875 -19.203125 C 3.851562 -18.566406 3.835938 -17.882812 3.828125 -17.15625 C 3.816406 -16.4375 3.8125 -15.582031 3.8125 -14.59375 Z M 3.71875 5.515625 C 3.71875 6.867188 3.710938 8.125 3.703125 9.28125 C 3.691406 10.445312 3.6875 11.515625 3.6875 12.484375 C 3.6875 14.472656 3.695312 16.4375 3.71875 18.375 C 3.738281 20.320312 3.835938 22.070312 4.015625 23.625 C 4.203125 25.175781 4.484375 26.425781 4.859375 27.375 C 5.234375 28.332031 5.773438 28.8125 6.484375 28.8125 C 7.117188 28.8125 7.640625 28.519531 8.046875 27.9375 C 8.453125 27.363281 8.765625 26.679688 8.984375 25.890625 C 9.210938 25.097656 9.367188 24.289062 9.453125 23.46875 C 9.546875 22.644531 9.59375 21.976562 9.59375 21.46875 C 9.59375 20.15625 9.46875 18.78125 9.21875 17.34375 C 8.976562 15.914062 8.601562 14.5 8.09375 13.09375 C 7.59375 11.695312 6.976562 10.347656 6.25 9.046875 C 5.53125 7.742188 4.6875 6.566406 3.71875 5.515625 Z M 3.71875 5.515625"/></g><g id="o"><path d="M 8.34375 -2.890625 C 8.6875 -3.597656 9.082031 -4.375 9.53125 -5.21875 C 9.976562 -6.0625 10.457031 -6.914062 10.96875 -7.78125 C 11.476562 -8.644531 12.015625 -9.503906 12.578125 -10.359375 C 13.148438 -11.210938 13.75 -12.023438 14.375 -12.796875 C 14.988281 -13.546875 15.613281 -14.085938 16.25 -14.421875 C 16.882812 -14.753906 17.476562 -14.921875 18.03125 -14.921875 C 19.144531 -14.921875 19.96875 -14.515625 20.5 -13.703125 C 21.03125 -12.890625 21.296875 -11.882812 21.296875 -10.6875 C 21.296875 -10.40625 21.28125 -10.066406 21.25 -9.671875 C 21.21875 -9.273438 21.1875 -8.851562 21.15625 -8.40625 C 21.125 -7.957031 21.09375 -7.503906 21.0625 -7.046875 C 21.03125 -6.585938 21.015625 -6.15625 21.015625 -5.75 C 21.015625 -5.226562 21.039062 -4.734375 21.09375 -4.265625 C 21.144531 -3.796875 21.242188 -3.382812 21.390625 -3.03125 C 21.546875 -2.675781 21.757812 -2.394531 22.03125 -2.1875 C 22.3125 -1.988281 22.675781 -1.890625 23.125 -1.890625 C 23.9375 -1.890625 24.726562 -2.203125 25.5 -2.828125 C 26.269531 -3.460938 26.976562 -4.210938 27.625 -5.078125 C 28.28125 -5.953125 28.847656 -6.835938 29.328125 -7.734375 C 29.816406 -8.628906 30.175781 -9.351562 30.40625 -9.90625 C 30.519531 -10.144531 30.675781 -10.328125 30.875 -10.453125 C 31.082031 -10.585938 31.300781 -10.65625 31.53125 -10.65625 C 31.894531 -10.65625 32.1875 -10.519531 32.40625 -10.25 C 32.632812 -9.976562 32.75 -9.695312 32.75 -9.40625 C 32.75 -9.25 32.71875 -9.097656 32.65625 -8.953125 C 32.570312 -8.773438 32.398438 -8.421875 32.140625 -7.890625 C 31.890625 -7.359375 31.554688 -6.742188 31.140625 -6.046875 C 30.722656 -5.347656 30.234375 -4.609375 29.671875 -3.828125 C 29.117188 -3.046875 28.503906 -2.332031 27.828125 -1.6875 C 27.148438 -1.050781 26.421875 -0.519531 25.640625 -0.09375 C 24.867188 0.332031 24.050781 0.546875 23.1875 0.546875 C 22.226562 0.546875 21.445312 0.359375 20.84375 -0.015625 C 20.25 -0.390625 19.78125 -0.878906 19.4375 -1.484375 C 19.09375 -2.097656 18.863281 -2.773438 18.75 -3.515625 C 18.632812 -4.253906 18.578125 -5 18.578125 -5.75 C 18.578125 -6.0625 18.59375 -6.421875 18.625 -6.828125 C 18.65625 -7.234375 18.695312 -7.660156 18.75 -8.109375 C 18.800781 -8.566406 18.84375 -9.019531 18.875 -9.46875 C 18.90625 -9.914062 18.921875 -10.34375 18.921875 -10.75 C 18.921875 -11.4375 18.8125 -11.898438 18.59375 -12.140625 C 18.382812 -12.390625 18.195312 -12.515625 18.03125 -12.515625 C 17.6875 -12.515625 17.296875 -12.316406 16.859375 -11.921875 C 16.421875 -11.523438 15.957031 -11.003906 15.46875 -10.359375 C 14.988281 -9.722656 14.5 -9.003906 14 -8.203125 C 13.5 -7.398438 13.03125 -6.601562 12.59375 -5.8125 C 12.15625 -5.019531 11.75 -4.265625 11.375 -3.546875 C 11 -2.828125 10.703125 -2.234375 10.484375 -1.765625 C 10.054688 -0.867188 9.628906 -0.265625 9.203125 0.046875 C 8.773438 0.359375 8.335938 0.515625 7.890625 0.515625 C 7.273438 0.515625 6.78125 0.328125 6.40625 -0.046875 C 6.03125 -0.421875 5.84375 -0.953125 5.84375 -1.640625 C 5.84375 -1.785156 5.863281 -2.078125 5.90625 -2.515625 C 5.945312 -2.953125 6 -3.472656 6.0625 -4.078125 C 6.125 -4.691406 6.1875 -5.351562 6.25 -6.0625 C 6.320312 -6.769531 6.390625 -7.46875 6.453125 -8.15625 C 6.515625 -8.851562 6.566406 -9.5 6.609375 -10.09375 C 6.648438 -10.695312 6.671875 -11.203125 6.671875 -11.609375 C 6.671875 -12.148438 6.648438 -12.664062 6.609375 -13.15625 C 6.566406 -13.644531 6.484375 -13.941406 6.359375 -14.046875 C 6.160156 -13.984375 5.816406 -13.582031 5.328125 -12.84375 C 4.835938 -12.101562 4.207031 -10.804688 3.4375 -8.953125 C 3.320312 -8.710938 3.15625 -8.53125 2.9375 -8.40625 C 2.726562 -8.28125 2.507812 -8.21875 2.28125 -8.21875 C 1.914062 -8.21875 1.625 -8.335938 1.40625 -8.578125 C 1.195312 -8.828125 1.09375 -9.113281 1.09375 -9.4375 C 1.09375 -9.582031 1.125 -9.738281 1.1875 -9.90625 C 2.144531 -12.195312 3.046875 -13.882812 3.890625 -14.96875 C 4.742188 -16.050781 5.585938 -16.59375 6.421875 -16.59375 C 6.910156 -16.59375 7.328125 -16.46875 7.671875 -16.21875 C 8.015625 -15.96875 8.285156 -15.640625 8.484375 -15.234375 C 8.691406 -14.828125 8.84375 -14.378906 8.9375 -13.890625 C 9.03125 -13.398438 9.078125 -12.898438 9.078125 -12.390625 C 9.078125 -12.003906 9.050781 -11.40625 9 -10.59375 C 8.945312 -9.78125 8.875 -8.90625 8.78125 -7.96875 C 8.695312 -7.039062 8.617188 -6.113281 8.546875 -5.1875 C 8.472656 -4.269531 8.40625 -3.503906 8.34375 -2.890625 Z M 8.34375 -2.890625"/></g><g id="p"><path d="M 13.671875 -9.328125 C 14.710938 -4.390625 16.226562 -1.921875 18.21875 -1.921875 C 18.988281 -1.921875 19.726562 -2.203125 20.4375 -2.765625 C 21.144531 -3.335938 21.800781 -4.035156 22.40625 -4.859375 C 23.019531 -5.679688 23.5625 -6.550781 24.03125 -7.46875 C 24.5 -8.394531 24.882812 -9.195312 25.1875 -9.875 C 25.394531 -10.394531 25.769531 -10.65625 26.3125 -10.65625 C 26.644531 -10.65625 26.929688 -10.523438 27.171875 -10.265625 C 27.410156 -10.003906 27.53125 -9.726562 27.53125 -9.4375 C 27.53125 -9.257812 27.5 -9.109375 27.4375 -8.984375 C 27.28125 -8.617188 27.054688 -8.128906 26.765625 -7.515625 C 26.484375 -6.910156 26.132812 -6.257812 25.71875 -5.5625 C 25.300781 -4.875 24.832031 -4.164062 24.3125 -3.4375 C 23.800781 -2.707031 23.234375 -2.050781 22.609375 -1.46875 C 21.992188 -0.894531 21.335938 -0.421875 20.640625 -0.046875 C 19.953125 0.328125 19.222656 0.515625 18.453125 0.515625 C 17.015625 0.515625 15.78125 0.0195312 14.75 -0.96875 C 13.726562 -1.96875 12.84375 -3.613281 12.09375 -5.90625 C 11.070312 -3.71875 10.035156 -2.128906 8.984375 -1.140625 C 7.929688 -0.160156 6.796875 0.328125 5.578125 0.328125 C 4.941406 0.328125 4.320312 0.222656 3.71875 0.015625 C 3.125 -0.179688 2.597656 -0.515625 2.140625 -0.984375 C 1.691406 -1.460938 1.328125 -2.066406 1.046875 -2.796875 C 0.773438 -3.535156 0.640625 -4.441406 0.640625 -5.515625 C 0.640625 -6.992188 0.894531 -8.351562 1.40625 -9.59375 C 1.925781 -10.832031 2.59375 -11.894531 3.40625 -12.78125 C 4.21875 -13.664062 5.117188 -14.351562 6.109375 -14.84375 C 7.109375 -15.34375 8.097656 -15.59375 9.078125 -15.59375 C 9.398438 -15.59375 9.675781 -15.476562 9.90625 -15.25 C 10.144531 -15.03125 10.265625 -14.75 10.265625 -14.40625 C 10.265625 -14.101562 10.164062 -13.832031 9.96875 -13.59375 C 9.78125 -13.363281 9.523438 -13.226562 9.203125 -13.1875 C 8.566406 -13.101562 7.882812 -12.898438 7.15625 -12.578125 C 6.425781 -12.253906 5.753906 -11.785156 5.140625 -11.171875 C 4.535156 -10.566406 4.035156 -9.789062 3.640625 -8.84375 C 3.242188 -7.90625 3.046875 -6.785156 3.046875 -5.484375 C 3.046875 -4.410156 3.265625 -3.570312 3.703125 -2.96875 C 4.140625 -2.375 4.773438 -2.078125 5.609375 -2.078125 C 5.953125 -2.078125 6.316406 -2.164062 6.703125 -2.34375 C 7.085938 -2.53125 7.5 -2.890625 7.9375 -3.421875 C 8.375 -3.960938 8.851562 -4.722656 9.375 -5.703125 C 9.90625 -6.691406 10.488281 -7.988281 11.125 -9.59375 C 10.769531 -11.476562 10.441406 -13.648438 10.140625 -16.109375 C 9.835938 -18.566406 9.6875 -21.3125 9.6875 -24.34375 C 9.6875 -25.675781 9.726562 -27.0625 9.8125 -28.5 C 9.894531 -29.945312 10.03125 -31.359375 10.21875 -32.734375 C 10.414062 -34.117188 10.675781 -35.429688 11 -36.671875 C 11.320312 -37.910156 11.710938 -39 12.171875 -39.9375 C 12.628906 -40.882812 13.164062 -41.628906 13.78125 -42.171875 C 14.40625 -42.710938 15.113281 -42.984375 15.90625 -42.984375 C 16.613281 -42.984375 17.210938 -42.789062 17.703125 -42.40625 C 18.203125 -42.019531 18.601562 -41.484375 18.90625 -40.796875 C 19.21875 -40.117188 19.445312 -39.296875 19.59375 -38.328125 C 19.75 -37.367188 19.828125 -36.3125 19.828125 -35.15625 C 19.828125 -32.675781 19.613281 -30.195312 19.1875 -27.71875 C 18.757812 -25.238281 18.226562 -22.863281 17.59375 -20.59375 C 16.96875 -18.332031 16.300781 -16.238281 15.59375 -14.3125 C 14.882812 -12.382812 14.242188 -10.722656 13.671875 -9.328125 Z M 17.421875 -35.1875 C 17.421875 -35.726562 17.40625 -36.304688 17.375 -36.921875 C 17.34375 -37.546875 17.265625 -38.128906 17.140625 -38.671875 C 17.023438 -39.222656 16.867188 -39.675781 16.671875 -40.03125 C 16.484375 -40.394531 16.226562 -40.578125 15.90625 -40.578125 C 15.375 -40.578125 14.878906 -40.109375 14.421875 -39.171875 C 13.960938 -38.234375 13.5625 -37 13.21875 -35.46875 C 12.875 -33.9375 12.597656 -32.203125 12.390625 -30.265625 C 12.191406 -28.328125 12.09375 -26.378906 12.09375 -24.421875 C 12.09375 -22.535156 12.164062 -20.648438 12.3125 -18.765625 C 12.46875 -16.878906 12.640625 -15.203125 12.828125 -13.734375 C 13.453125 -15.378906 14.039062 -17.070312 14.59375 -18.8125 C 15.15625 -20.5625 15.644531 -22.34375 16.0625 -24.15625 C 16.476562 -25.976562 16.804688 -27.8125 17.046875 -29.65625 C 17.296875 -31.507812 17.421875 -33.351562 17.421875 -35.1875 Z M 17.421875 -35.1875"/></g><g id="q"><path d="M 5.0625 -3.53125 C 5.519531 -2.90625 6.097656 -2.40625 6.796875 -2.03125 C 7.503906 -1.65625 8.375 -1.46875 9.40625 -1.46875 C 10.445312 -1.46875 11.394531 -1.71875 12.25 -2.21875 C 13.101562 -2.726562 13.882812 -3.390625 14.59375 -4.203125 C 15.300781 -5.015625 15.929688 -5.921875 16.484375 -6.921875 C 17.046875 -7.929688 17.550781 -8.9375 18 -9.9375 C 18.101562 -10.175781 18.25 -10.351562 18.4375 -10.46875 C 18.632812 -10.59375 18.851562 -10.65625 19.09375 -10.65625 C 19.457031 -10.65625 19.75 -10.523438 19.96875 -10.265625 C 20.195312 -10.003906 20.3125 -9.726562 20.3125 -9.4375 C 20.3125 -9.320312 20.300781 -9.226562 20.28125 -9.15625 C 20.257812 -9.082031 20.222656 -9.003906 20.171875 -8.921875 C 18.703125 -5.671875 17.09375 -3.222656 15.34375 -1.578125 C 13.601562 0.0664062 11.632812 0.914062 9.4375 0.96875 C 8.019531 0.96875 6.796875 0.691406 5.765625 0.140625 C 4.742188 -0.398438 3.898438 -1.101562 3.234375 -1.96875 C 2.578125 -2.832031 2.085938 -3.8125 1.765625 -4.90625 C 1.441406 -6 1.28125 -7.09375 1.28125 -8.1875 C 1.28125 -9.269531 1.410156 -10.269531 1.671875 -11.1875 C 1.941406 -12.113281 2.328125 -12.914062 2.828125 -13.59375 C 3.335938 -14.28125 3.9375 -14.816406 4.625 -15.203125 C 5.320312 -15.585938 6.085938 -15.78125 6.921875 -15.78125 C 7.421875 -15.78125 7.910156 -15.675781 8.390625 -15.46875 C 8.867188 -15.269531 9.300781 -14.984375 9.6875 -14.609375 C 10.070312 -14.234375 10.378906 -13.78125 10.609375 -13.25 C 10.847656 -12.71875 10.96875 -12.109375 10.96875 -11.421875 C 10.96875 -10.546875 10.816406 -9.722656 10.515625 -8.953125 C 10.222656 -8.179688 9.8125 -7.460938 9.28125 -6.796875 C 8.757812 -6.140625 8.132812 -5.53125 7.40625 -4.96875 C 6.675781 -4.414062 5.894531 -3.9375 5.0625 -3.53125 Z M 4.109375 -5.609375 C 4.765625 -5.890625 5.363281 -6.242188 5.90625 -6.671875 C 6.457031 -7.097656 6.925781 -7.566406 7.3125 -8.078125 C 7.695312 -8.597656 7.992188 -9.140625 8.203125 -9.703125 C 8.421875 -10.273438 8.53125 -10.847656 8.53125 -11.421875 C 8.53125 -12.066406 8.367188 -12.550781 8.046875 -12.875 C 7.734375 -13.207031 7.359375 -13.375 6.921875 -13.375 C 6.347656 -13.375 5.859375 -13.210938 5.453125 -12.890625 C 5.046875 -12.578125 4.710938 -12.160156 4.453125 -11.640625 C 4.203125 -11.128906 4.015625 -10.554688 3.890625 -9.921875 C 3.773438 -9.296875 3.71875 -8.671875 3.71875 -8.046875 C 3.71875 -7.660156 3.753906 -7.253906 3.828125 -6.828125 C 3.910156 -6.398438 4.003906 -5.992188 4.109375 -5.609375 Z M 4.109375 -5.609375"/></g><clipPath id="a"><path d="M 124.917969 75.265625 L 151 75.265625 L 151 96.265625 L 124.917969 96.265625 Z M 124.917969 75.265625"/></clipPath><clipPath id="b"><path d="M 0.140625 58.753906 L 128.109375 58.753906 L 128.109375 104.996094 L 0.140625 104.996094 Z M 0.140625 58.753906"/></clipPath><clipPath id="c"><path d="M 11.632812 45 L 90 45 L 90 104.996094 L 11.632812 104.996094 Z M 11.632812 45"/></clipPath><clipPath id="d"><path d="M 139 55 L 143.699219 55 L 143.699219 60 L 139 60 Z M 139 55"/></clipPath><clipPath id="e"><path d="M 141 59 L 143.699219 59 L 143.699219 62 L 141 62 Z M 141 59"/></clipPath><clipPath id="f"><path d="M 112.199219 50 L 116 50 L 116 54 L 112.199219 54 Z M 112.199219 50"/></clipPath><clipPath id="g"><path d="M 112.199219 48 L 115 48 L 115 50 L 112.199219 50 Z M 112.199219 48"/></clipPath></defs><g clip-path="url(#a)"><path fill="#FFF" d="M 115.867188 75.5625 L 118.804688 77.550781 L 122.632812 71.726562 L 122.632812 78.351562 L 126.164062 78.351562 L 126.164062 87.308594 C 126.164062 92.234375 130.136719 96.265625 134.992188 96.265625 L 136.757812 96.265625 L 136.757812 95.902344 C 140.742188 95.042969 143.816406 91.601562 143.816406 87.308594 L 143.816406 80.140625 C 143.816406 79.128906 144.585938 78.351562 145.582031 78.351562 L 150.878906 78.351562 L 150.878906 74.765625 L 145.582031 74.765625 C 142.679688 74.765625 140.289062 77.195312 140.289062 80.140625 L 140.289062 87.308594 C 140.289062 90.296875 137.9375 92.683594 134.992188 92.683594 C 132.046875 92.683594 129.695312 90.296875 129.695312 87.308594 L 129.695312 78.351562 L 133.226562 78.351562 L 133.226562 64.015625 L 123.453125 64.015625 Z M 126.164062 74.765625 L 126.164062 67.601562 L 129.695312 67.601562 L 129.695312 74.765625 Z M 126.164062 74.765625"/></g><g clip-path="url(#b)"><path fill="#FFF" d="M 66.511719 62.320312 C 74.949219 63.175781 82.519531 66.730469 90.585938 68.78125 C 100.359375 71.261719 109.789062 74.105469 120.117188 73.929688 C 121.503906 73.898438 127.296875 73.371094 128.113281 73.199219 C 117.058594 71.488281 106.113281 69.667969 95.335938 67.039062 C 85.214844 64.566406 75.199219 60.683594 64.722656 59.363281 C 57.457031 58.429688 50.847656 59.117188 43.160156 61.320312 C 26.84375 65.996094 11.863281 72.109375 0.140625 83.625 C 18.371094 71.324219 41.699219 59.800781 66.511719 62.320312 Z M 80.066406 86.191406 C 68.25 82.007812 37.371094 86.195312 22.503906 104.996094 C 22.503906 104.996094 52.390625 80.894531 82.785156 89.652344 C 109.222656 97.269531 125.039062 93.695312 125.039062 93.695312 L 120.511719 92.71875 C 120.511719 92.71875 95.226562 91.554688 80.066406 86.191406 Z M 19.605469 93.15625 C 34.472656 74.351562 67.335938 71.375 79.273438 75.207031 C 95.363281 80.375 116.464844 80.835938 116.464844 80.835938 L 122.140625 81.855469 C 122.140625 81.855469 110.910156 85.203125 79.886719 77.808594 C 49.117188 70.472656 19.605469 93.15625 19.605469 93.15625"/></g><path fill="#F89A2E" d="M 57.191406 62.707031 C 57.191406 62.707031 56.609375 67.253906 54.085938 68.238281 C 54.085938 68.238281 57.007812 69.628906 57.21875 72.578125 C 57.234375 72.769531 58.214844 68.605469 60.597656 67.972656 C 60.597656 67.972656 57.535156 66.890625 57.191406 62.707031 Z M 91.308594 70.898438 C 91.28125 70.507812 89.292969 78.9375 84.46875 80.214844 C 84.46875 80.214844 90.667969 82.410156 91.371094 90.875 C 91.371094 90.875 92.53125 82.285156 96.867188 81.070312 C 96.867188 81.070312 91.738281 76.867188 91.308594 70.898438 Z M 70.863281 90.875 L 73.4375 88.574219 L 77.5 52.132812 L 76.015625 48.765625 Z M 41.664062 52.75 L 44.578125 71.40625 L 47.492188 70.457031 L 43.804688 51.914062 Z M 15.832031 58.941406 L 17.601562 83.636719 L 19.085938 82.074219 L 18.429688 58.96875 Z M 28.386719 73.863281 C 27.765625 73.425781 26.644531 73.167969 25.953125 73.554688 C 25.734375 73.566406 25.523438 73.648438 25.34375 73.824219 C 24.429688 74.746094 24.464844 76.171875 25.417969 77.046875 C 26.472656 78.019531 28.140625 78.09375 29.144531 77.019531 C 30.097656 76 29.355469 74.546875 28.386719 73.863281 Z M 113.609375 90.628906 C 112.609375 91.703125 110.941406 91.628906 109.886719 90.65625 C 108.933594 89.78125 108.894531 88.355469 109.8125 87.433594 C 109.992188 87.253906 110.199219 87.175781 110.417969 87.164062 C 111.113281 86.777344 112.234375 87.03125 112.851562 87.46875 C 113.824219 88.15625 114.566406 89.609375 113.609375 90.628906"/><g clip-path="url(#c)"><path fill="#74D0C9" d="M 54.242188 97.382812 C 52.964844 97.195312 51.648438 97.789062 50.78125 98.742188 C 49.910156 99.695312 49.453125 100.964844 49.289062 102.242188 C 49.222656 102.773438 49.203125 103.324219 49.371094 103.828125 C 49.539062 104.335938 49.917969 104.796875 50.433594 104.945312 C 50.777344 105.042969 51.152344 104.992188 51.496094 104.890625 C 52.457031 104.601562 53.257812 103.90625 53.835938 103.089844 C 54.417969 102.273438 54.796875 101.335938 55.136719 100.394531 C 55.335938 99.832031 55.527344 99.238281 55.410156 98.65625 C 55.289062 98.074219 54.828125 97.277344 54.242188 97.382812 Z M 89.246094 48.210938 C 88.574219 47.109375 87.425781 46.292969 86.167969 45.761719 C 83.304688 44.554688 79.761719 44.800781 77.132812 46.390625 C 76.328125 46.878906 75.566406 47.550781 75.40625 48.414062 C 75.546875 49.199219 75.832031 49.523438 76.3125 50.1875 C 77.324219 51.582031 78.917969 52.582031 80.648438 53.136719 C 82.386719 53.695312 84.257812 53.824219 86.089844 53.722656 C 87.246094 53.660156 88.519531 53.441406 89.222656 52.609375 C 89.492188 52.285156 89.65625 51.894531 89.753906 51.496094 C 90.03125 50.394531 89.847656 49.199219 89.246094 48.210938 Z M 49.167969 67.753906 C 48.539062 67.023438 47.605469 66.75 46.6875 66.835938 C 46.617188 66.808594 46.539062 66.785156 46.449219 66.777344 C 44.382812 66.640625 42.824219 67.894531 41.546875 69.371094 C 40.417969 70.667969 39.503906 72.132812 38.808594 73.703125 C 38.109375 75.296875 37.667969 77 37.480469 78.726562 C 37.316406 80.234375 37.113281 82.363281 38.105469 83.640625 C 39.175781 85.011719 41.242188 84.6875 42.652344 84.121094 C 44.132812 83.519531 45.5 82.453125 46.570312 81.285156 C 48.691406 78.964844 49.96875 75.984375 50.210938 72.855469 C 50.34375 71.183594 50.316406 69.09375 49.167969 67.753906 Z M 22.871094 81.40625 C 23.089844 82.464844 22.742188 83.546875 22.375 84.566406 C 21.757812 86.277344 21.066406 87.984375 20.015625 89.46875 C 18.960938 90.953125 17.503906 92.214844 15.757812 92.738281 C 15.132812 92.925781 14.457031 93.015625 13.828125 92.839844 C 12.894531 92.574219 12.199219 91.734375 11.894531 90.8125 C 11.589844 89.890625 11.625 88.894531 11.746094 87.929688 C 12.042969 85.605469 12.878906 83.296875 14.457031 81.5625 C 16.039062 79.832031 18.429688 78.757812 20.753906 79.09375 C 21.820312 78.898438 22.65625 80.347656 22.871094 81.40625"/></g><path fill="#74D0C9" d="M 52.355469 82.277344 C 52.660156 82.867188 53.246094 93.058594 53.3125 97.378906 C 53.621094 97.339844 53.933594 97.335938 54.242188 97.382812 C 54.828125 97.277344 55.289062 98.074219 55.410156 98.65625 L 54.285156 83.867188 C 58.375 83.792969 62.246094 82.277344 62.246094 82.277344 L 63.03125 86.632812 L 64.410156 86.476562 L 64.664062 79.9375 C 61.28125 80.304688 51.96875 81.53125 52.355469 82.277344 Z M 42.675781 45.210938 L 44.578125 50.65625 C 44.578125 50.65625 43.804688 57.816406 14.128906 60.167969 L 14.914062 57.378906 C 14.914062 57.378906 33.003906 55.414062 42.675781 45.210938"/><g clip-path="url(#d)"><path fill="#FBD03B" d="M 141.4375 56.792969 L 142.667969 55.878906 L 142.777344 57.402344 L 143.695312 58.632812 L 142.164062 58.738281 L 140.929688 59.65625 L 140.824219 58.128906 L 139.902344 56.902344 L 141.4375 56.792969"/></g><g clip-path="url(#e)"><path fill="#FBD03B" d="M 142.386719 60.007812 L 142.859375 59.65625 L 142.898438 60.242188 L 143.253906 60.714844 L 142.664062 60.757812 L 142.195312 61.105469 L 142.152344 60.523438 L 141.800781 60.050781 L 142.386719 60.007812"/></g><g clip-path="url(#f)"><path fill="#FBD03B" d="M 113.734375 51.121094 L 114.964844 50.207031 L 115.074219 51.734375 L 115.992188 52.960938 L 114.460938 53.070312 L 113.226562 53.988281 L 113.121094 52.460938 L 112.199219 51.230469 L 113.734375 51.121094"/></g><g clip-path="url(#g)"><path fill="#FBD03B" d="M 113.226562 48.835938 L 113.699219 48.484375 L 113.742188 49.070312 L 114.09375 49.542969 L 113.507812 49.582031 L 113.03125 49.933594 L 112.992188 49.347656 L 112.640625 48.878906 L 113.226562 48.835938"/></g><path fill="#FBD03B" d="M 116.355469 48.234375 L 117.585938 47.320312 L 117.695312 48.847656 L 118.617188 50.078125 L 117.085938 50.183594 L 115.851562 51.101562 L 115.746094 49.574219 L 114.824219 48.34375 L 116.355469 48.234375"/><path fill="#74D0C9" d="M 138.832031 56.597656 C 138.832031 62.9375 133.960938 68.078125 127.949219 68.078125 C 121.9375 68.078125 117.0625 62.9375 117.0625 56.597656 C 117.0625 50.253906 121.9375 45.113281 127.949219 45.113281 C 133.960938 45.113281 138.832031 50.253906 138.832031 56.597656"/><path fill="#FFF" d="M 139.21875 56.058594 L 139.21875 58.09375 C 139.21875 58.242188 139.101562 58.363281 138.953125 58.363281 C 138.9375 58.363281 138.925781 58.363281 138.914062 58.359375 C 138.902344 58.359375 138.894531 58.355469 138.882812 58.351562 C 136.957031 57.929688 127.085938 56.007812 117.058594 58.527344 C 117.019531 58.53125 116.984375 58.546875 116.945312 58.554688 C 116.929688 58.554688 116.914062 58.554688 116.90625 58.554688 L 116.871094 58.546875 C 116.761719 58.511719 116.675781 58.410156 116.675781 58.289062 L 116.675781 56.074219 C 116.675781 55.949219 116.761719 55.839844 116.878906 55.816406 C 116.886719 55.8125 116.894531 55.8125 116.90625 55.808594 C 118.539062 55.308594 128.707031 52.492188 138.953125 55.792969 L 138.960938 55.792969 C 139.007812 55.808594 139.054688 55.824219 139.101562 55.839844 C 139.101562 55.839844 139.105469 55.839844 139.105469 55.839844 C 139.175781 55.886719 139.21875 55.96875 139.21875 56.058594"/><path fill="#FFF" d="M 132.164062 104.882812 L 123.730469 104.882812 L 120.265625 66.15625 L 135.628906 66.15625 L 132.164062 104.882812"/><path fill="#9491D0" d="M 135.597656 66.46875 L 135.769531 64.566406 L 120.125 64.566406 L 120.300781 66.46875 L 135.597656 66.46875"/><path fill="#F89A2E" d="M 129.917969 82.734375 L 125.980469 82.734375 L 125.980469 74.132812 L 129.917969 74.132812 L 129.917969 82.734375"/><g fill="#FFF"><use x="147.372" y="87.913" xmlns:xlink="http://www.w3.org/1999/xlink" xlink:href="#h" xlink:type="simple" xlink:actuate="onLoad" xlink:show="embed"/><use x="163.445" y="87.913" xmlns:xlink="http://www.w3.org/1999/xlink" xlink:href="#i" xlink:type="simple" xlink:actuate="onLoad" xlink:show="embed"/><use x="183.624" y="87.913" xmlns:xlink="http://www.w3.org/1999/xlink" xlink:href="#j" xlink:type="simple" xlink:actuate="onLoad" xlink:show="embed"/><use x="203.546" y="87.913" xmlns:xlink="http://www.w3.org/1999/xlink" xlink:href="#k" xlink:type="simple" xlink:actuate="onLoad" xlink:show="embed"/><use x="217.341" y="87.913" xmlns:xlink="http://www.w3.org/1999/xlink" xlink:href="#l" xlink:type="simple" xlink:actuate="onLoad" xlink:show="embed"/><use x="236.141" y="87.913" xmlns:xlink="http://www.w3.org/1999/xlink" xlink:href="#m" xlink:type="simple" xlink:actuate="onLoad" xlink:show="embed"/><use x="250.577" y="87.913" xmlns:xlink="http://www.w3.org/1999/xlink" xlink:href="#n" xlink:type="simple" xlink:actuate="onLoad" xlink:show="embed"/><use x="265.174" y="87.913" xmlns:xlink="http://www.w3.org/1999/xlink" xlink:href="#k" xlink:type="simple" xlink:actuate="onLoad" xlink:show="embed"/><use x="278.969" y="87.913" xmlns:xlink="http://www.w3.org/1999/xlink" xlink:href="#o" xlink:type="simple" xlink:actuate="onLoad" xlink:show="embed"/><use x="308.195" y="87.913" xmlns:xlink="http://www.w3.org/1999/xlink" xlink:href="#p" xlink:type="simple" xlink:actuate="onLoad" xlink:show="embed"/><use x="332.192" y="87.913" xmlns:xlink="http://www.w3.org/1999/xlink" xlink:href="#q" xlink:type="simple" xlink:actuate="onLoad" xlink:show="embed"/><use x="348.97" y="87.913" xmlns:xlink="http://www.w3.org/1999/xlink" xlink:href="#j" xlink:type="simple" xlink:actuate="onLoad" xlink:show="embed"/></g></svg>