<svg xmlns="http://www.w3.org/2000/svg" xmlns:xlink="http://www.w3.org/1999/xlink" width="300" viewBox="0 0 300 63.75" height="63.75" version="1.0"><defs><clipPath id="a"><path d="M 102 30 L 126 30 L 126 57 L 102 57 Z M 102 30"/></clipPath><clipPath id="b"><path d="M 103.535156 56.722656 L 102.085938 30.617188 L 123.71875 29.417969 L 125.167969 55.523438 Z M 103.535156 56.722656"/></clipPath><clipPath id="c"><path d="M 98.03125 57.03125 L 96.582031 30.921875 L 125.675781 29.308594 L 127.121094 55.414062 Z M 98.03125 57.03125"/></clipPath><clipPath id="d"><path d="M 7.050781 17.035156 L 105.433594 17.035156 L 105.433594 52.734375 L 7.050781 52.734375 Z M 7.050781 17.035156"/></clipPath><clipPath id="e"><path d="M 15.886719 6.417969 L 76.1875 6.417969 L 76.1875 52.734375 L 15.886719 52.734375 Z M 15.886719 6.417969"/></clipPath><clipPath id="f"><path d="M 17 6.417969 L 57 6.417969 L 57 48 L 17 48 Z M 17 6.417969"/></clipPath><clipPath id="g"><path d="M 114 14 L 117.320312 14 L 117.320312 18 L 114 18 Z M 114 14"/></clipPath><clipPath id="h"><path d="M 93.414062 10 L 97 10 L 97 14 L 93.414062 14 Z M 93.414062 10"/></clipPath><clipPath id="i"><path d="M 93.414062 9 L 95 9 L 95 11 L 93.414062 11 Z M 93.414062 9"/></clipPath><clipPath id="j"><path d="M 97 6.417969 L 114 6.417969 L 114 25 L 97 25 Z M 97 6.417969"/></clipPath><clipPath id="k"><path d="M 99 22 L 112 22 L 112 52.734375 L 99 52.734375 Z M 99 22"/></clipPath><clipPath id="l"><path d="M 121 3 L 294 3 L 294 63.5 L 121 63.5 Z M 121 3"/></clipPath><g id="m"><path d="M 15.015625 -6.84375 C 14.828125 -6.46875 14.597656 -6.019531 14.328125 -5.5 C 14.054688 -4.976562 13.742188 -4.4375 13.390625 -3.875 C 13.046875 -3.320312 12.660156 -2.769531 12.234375 -2.21875 C 11.804688 -1.664062 11.34375 -1.171875 10.84375 -0.734375 C 10.34375 -0.296875 9.804688 0.0546875 9.234375 0.328125 C 8.660156 0.597656 8.054688 0.734375 7.421875 0.734375 C 6.429688 0.734375 5.582031 0.429688 4.875 -0.171875 C 4.164062 -0.785156 3.5625 -1.585938 3.0625 -2.578125 C 2.570312 -3.566406 2.171875 -4.691406 1.859375 -5.953125 C 1.554688 -7.210938 1.320312 -8.492188 1.15625 -9.796875 C 1 -11.109375 0.890625 -12.382812 0.828125 -13.625 C 0.765625 -14.863281 0.734375 -15.957031 0.734375 -16.90625 C 0.734375 -18.289062 0.78125 -19.722656 0.875 -21.203125 C 0.96875 -22.691406 1.113281 -24.144531 1.3125 -25.5625 C 1.507812 -26.976562 1.757812 -28.320312 2.0625 -29.59375 C 2.363281 -30.863281 2.722656 -31.976562 3.140625 -32.9375 C 3.566406 -33.894531 4.050781 -34.648438 4.59375 -35.203125 C 5.144531 -35.765625 5.765625 -36.046875 6.453125 -36.046875 C 6.992188 -36.046875 7.484375 -35.914062 7.921875 -35.65625 C 8.359375 -35.40625 8.722656 -34.988281 9.015625 -34.40625 C 9.316406 -33.832031 9.550781 -33.082031 9.71875 -32.15625 C 9.882812 -31.238281 9.96875 -30.113281 9.96875 -28.78125 C 9.96875 -27.132812 9.789062 -25.429688 9.4375 -23.671875 C 9.09375 -21.921875 8.625 -20.15625 8.03125 -18.375 C 7.4375 -16.59375 6.734375 -14.816406 5.921875 -13.046875 C 5.117188 -11.273438 4.257812 -9.546875 3.34375 -7.859375 C 3.75 -5.765625 4.296875 -4.117188 4.984375 -2.921875 C 5.679688 -1.734375 6.519531 -1.140625 7.5 -1.140625 C 8.15625 -1.140625 8.785156 -1.394531 9.390625 -1.90625 C 10.003906 -2.425781 10.566406 -3.039062 11.078125 -3.75 C 11.585938 -4.46875 12.035156 -5.191406 12.421875 -5.921875 C 12.804688 -6.648438 13.109375 -7.238281 13.328125 -7.6875 C 13.410156 -7.851562 13.523438 -7.976562 13.671875 -8.0625 C 13.816406 -8.15625 13.984375 -8.203125 14.171875 -8.203125 C 14.453125 -8.203125 14.675781 -8.101562 14.84375 -7.90625 C 15.019531 -7.707031 15.109375 -7.488281 15.109375 -7.25 C 15.109375 -7.144531 15.078125 -7.007812 15.015625 -6.84375 Z M 2.625 -16.796875 C 2.625 -15.734375 2.644531 -14.71875 2.6875 -13.75 C 2.738281 -12.78125 2.804688 -11.847656 2.890625 -10.953125 C 3.585938 -12.285156 4.25 -13.707031 4.875 -15.21875 C 5.5 -16.726562 6.050781 -18.253906 6.53125 -19.796875 C 7.007812 -21.335938 7.390625 -22.867188 7.671875 -24.390625 C 7.960938 -25.921875 8.109375 -27.375 8.109375 -28.75 C 8.109375 -30.695312 7.953125 -32.09375 7.640625 -32.9375 C 7.328125 -33.78125 6.90625 -34.203125 6.375 -34.203125 C 6.03125 -34.203125 5.695312 -33.960938 5.375 -33.484375 C 5.050781 -33.003906 4.75 -32.351562 4.46875 -31.53125 C 4.195312 -30.707031 3.941406 -29.734375 3.703125 -28.609375 C 3.472656 -27.484375 3.28125 -26.273438 3.125 -24.984375 C 2.96875 -23.703125 2.84375 -22.359375 2.75 -20.953125 C 2.664062 -19.554688 2.625 -18.171875 2.625 -16.796875 Z M 2.625 -16.796875"/></g><g id="n"><path d="M 10.140625 0.34375 C 10.710938 -0.226562 11.296875 -0.816406 11.890625 -1.421875 C 12.484375 -2.023438 13.0625 -2.65625 13.625 -3.3125 C 14.1875 -3.96875 14.707031 -4.65625 15.1875 -5.375 C 15.675781 -6.09375 16.113281 -6.859375 16.5 -7.671875 C 16.570312 -7.847656 16.679688 -7.976562 16.828125 -8.0625 C 16.984375 -8.15625 17.148438 -8.203125 17.328125 -8.203125 C 17.609375 -8.203125 17.832031 -8.101562 18 -7.90625 C 18.175781 -7.707031 18.265625 -7.488281 18.265625 -7.25 C 18.265625 -7.113281 18.242188 -6.988281 18.203125 -6.875 C 17.691406 -5.800781 17.101562 -4.816406 16.4375 -3.921875 C 15.78125 -3.035156 15.085938 -2.191406 14.359375 -1.390625 C 13.640625 -0.597656 12.90625 0.171875 12.15625 0.921875 C 11.414062 1.671875 10.710938 2.425781 10.046875 3.1875 C 9.972656 4.320312 9.96875 5.460938 10.03125 6.609375 C 10.101562 7.753906 10.140625 8.972656 10.140625 10.265625 C 10.140625 11.316406 10.101562 12.367188 10.03125 13.421875 C 9.96875 14.484375 9.863281 15.492188 9.71875 16.453125 C 9.570312 17.421875 9.367188 18.320312 9.109375 19.15625 C 8.859375 20 8.535156 20.726562 8.140625 21.34375 C 7.742188 21.96875 7.28125 22.457031 6.75 22.8125 C 6.21875 23.164062 5.597656 23.34375 4.890625 23.34375 C 3.722656 23.34375 2.828125 22.9375 2.203125 22.125 C 1.578125 21.320312 1.265625 20.195312 1.265625 18.75 C 1.265625 17.957031 1.347656 17.109375 1.515625 16.203125 C 1.691406 15.296875 1.9375 14.359375 2.25 13.390625 C 2.5625 12.421875 2.9375 11.441406 3.375 10.453125 C 3.8125 9.460938 4.285156 8.5 4.796875 7.5625 C 5.304688 6.625 5.847656 5.726562 6.421875 4.875 C 7.003906 4.03125 7.59375 3.265625 8.1875 2.578125 C 8.21875 1.785156 8.253906 0.960938 8.296875 0.109375 C 8.335938 -0.734375 8.382812 -1.519531 8.4375 -2.25 C 8 -1.488281 7.460938 -0.878906 6.828125 -0.421875 C 6.203125 0.0351562 5.507812 0.265625 4.75 0.265625 C 3.5 0.265625 2.515625 -0.148438 1.796875 -0.984375 C 1.085938 -1.828125 0.734375 -2.984375 0.734375 -4.453125 C 0.734375 -5.523438 0.835938 -6.5 1.046875 -7.375 C 1.253906 -8.257812 1.476562 -9.019531 1.71875 -9.65625 C 1.957031 -10.289062 2.175781 -10.773438 2.375 -11.109375 C 2.570312 -11.453125 2.671875 -11.613281 2.671875 -11.59375 C 2.847656 -11.875 3.101562 -12.015625 3.4375 -12.015625 C 3.71875 -12.015625 3.941406 -11.921875 4.109375 -11.734375 C 4.285156 -11.546875 4.375 -11.328125 4.375 -11.078125 C 4.375 -10.898438 4.328125 -10.734375 4.234375 -10.578125 C 4.242188 -10.597656 4.160156 -10.460938 3.984375 -10.171875 C 3.816406 -9.890625 3.628906 -9.472656 3.421875 -8.921875 C 3.210938 -8.378906 3.019531 -7.726562 2.84375 -6.96875 C 2.675781 -6.207031 2.59375 -5.375 2.59375 -4.46875 C 2.59375 -3.5625 2.753906 -2.851562 3.078125 -2.34375 C 3.410156 -1.832031 3.953125 -1.578125 4.703125 -1.578125 C 5.640625 -1.578125 6.484375 -2.273438 7.234375 -3.671875 C 7.992188 -5.066406 8.640625 -7.09375 9.171875 -9.75 C 9.203125 -9.957031 9.300781 -10.128906 9.46875 -10.265625 C 9.632812 -10.410156 9.832031 -10.484375 10.0625 -10.484375 C 10.320312 -10.484375 10.539062 -10.390625 10.71875 -10.203125 C 10.90625 -10.023438 11 -9.804688 11 -9.546875 C 11 -9.492188 10.96875 -9.195312 10.90625 -8.65625 C 10.84375 -8.125 10.765625 -7.410156 10.671875 -6.515625 C 10.578125 -5.628906 10.476562 -4.597656 10.375 -3.421875 C 10.28125 -2.242188 10.203125 -0.988281 10.140625 0.34375 Z M 8.15625 5.59375 C 7.414062 6.664062 6.734375 7.789062 6.109375 8.96875 C 5.492188 10.15625 4.960938 11.332031 4.515625 12.5 C 4.078125 13.675781 3.734375 14.800781 3.484375 15.875 C 3.234375 16.945312 3.109375 17.90625 3.109375 18.75 C 3.109375 19.601562 3.25 20.269531 3.53125 20.75 C 3.8125 21.238281 4.257812 21.484375 4.875 21.484375 C 5.414062 21.484375 5.894531 21.210938 6.3125 20.671875 C 6.738281 20.140625 7.09375 19.378906 7.375 18.390625 C 7.664062 17.398438 7.882812 16.203125 8.03125 14.796875 C 8.1875 13.390625 8.265625 11.8125 8.265625 10.0625 C 8.265625 9.351562 8.25 8.632812 8.21875 7.90625 C 8.195312 7.1875 8.175781 6.414062 8.15625 5.59375 Z M 8.15625 5.59375"/></g><g id="o"><path d="M 3.53125 -10.15625 C 3.46875 -9.71875 3.382812 -9.300781 3.28125 -8.90625 C 3.1875 -8.519531 3.09375 -8.179688 3 -7.890625 C 2.914062 -7.609375 2.835938 -7.375 2.765625 -7.1875 C 2.703125 -7.007812 2.660156 -6.914062 2.640625 -6.90625 C 2.484375 -6.519531 2.195312 -6.328125 1.78125 -6.328125 C 1.550781 -6.328125 1.335938 -6.410156 1.140625 -6.578125 C 0.941406 -6.753906 0.84375 -6.976562 0.84375 -7.25 C 0.84375 -7.34375 0.859375 -7.414062 0.890625 -7.46875 C 0.921875 -7.519531 0.96875 -7.617188 1.03125 -7.765625 C 1.101562 -7.910156 1.1875 -8.15625 1.28125 -8.5 C 1.382812 -8.851562 1.507812 -9.390625 1.65625 -10.109375 C 1.375 -10.109375 1.082031 -10.113281 0.78125 -10.125 C 0.488281 -10.144531 0.21875 -10.203125 -0.03125 -10.296875 C -0.289062 -10.398438 -0.503906 -10.5625 -0.671875 -10.78125 C -0.835938 -11 -0.921875 -11.296875 -0.921875 -11.671875 C -0.921875 -11.953125 -0.835938 -12.332031 -0.671875 -12.8125 C -0.515625 -13.289062 -0.304688 -13.757812 -0.046875 -14.21875 C 0.210938 -14.675781 0.503906 -15.070312 0.828125 -15.40625 C 1.160156 -15.75 1.492188 -15.921875 1.828125 -15.921875 C 2.210938 -15.921875 2.519531 -15.78125 2.75 -15.5 C 2.988281 -15.21875 3.175781 -14.875 3.3125 -14.46875 C 3.445312 -14.070312 3.539062 -13.648438 3.59375 -13.203125 C 3.65625 -12.753906 3.6875 -12.367188 3.6875 -12.046875 C 3.96875 -12.046875 4.242188 -12.046875 4.515625 -12.046875 C 4.785156 -12.054688 5.046875 -12.0625 5.296875 -12.0625 C 6.234375 -12.0625 6.945312 -11.851562 7.4375 -11.4375 C 7.9375 -11.03125 8.1875 -10.359375 8.1875 -9.421875 C 8.1875 -9.046875 8.160156 -8.648438 8.109375 -8.234375 C 8.054688 -7.816406 8 -7.390625 7.9375 -6.953125 C 7.875 -6.523438 7.816406 -6.09375 7.765625 -5.65625 C 7.710938 -5.226562 7.6875 -4.8125 7.6875 -4.40625 C 7.6875 -3.8125 7.769531 -3.316406 7.9375 -2.921875 C 8.101562 -2.535156 8.304688 -2.226562 8.546875 -2 C 8.796875 -1.769531 9.0625 -1.609375 9.34375 -1.515625 C 9.625 -1.429688 9.878906 -1.390625 10.109375 -1.390625 C 10.816406 -1.390625 11.484375 -1.617188 12.109375 -2.078125 C 12.742188 -2.535156 13.320312 -3.085938 13.84375 -3.734375 C 14.375 -4.390625 14.847656 -5.082031 15.265625 -5.8125 C 15.691406 -6.539062 16.039062 -7.175781 16.3125 -7.71875 C 16.394531 -7.863281 16.507812 -7.976562 16.65625 -8.0625 C 16.8125 -8.144531 16.972656 -8.1875 17.140625 -8.1875 C 17.429688 -8.1875 17.660156 -8.085938 17.828125 -7.890625 C 17.992188 -7.703125 18.078125 -7.492188 18.078125 -7.265625 C 18.078125 -7.097656 18.039062 -6.953125 17.96875 -6.828125 C 17.59375 -6.148438 17.15625 -5.382812 16.65625 -4.53125 C 16.15625 -3.6875 15.582031 -2.890625 14.9375 -2.140625 C 14.289062 -1.398438 13.566406 -0.773438 12.765625 -0.265625 C 11.972656 0.242188 11.097656 0.5 10.140625 0.5 C 9.546875 0.5 8.984375 0.382812 8.453125 0.15625 C 7.929688 -0.0625 7.472656 -0.378906 7.078125 -0.796875 C 6.691406 -1.222656 6.382812 -1.742188 6.15625 -2.359375 C 5.925781 -2.972656 5.8125 -3.671875 5.8125 -4.453125 C 5.8125 -5.273438 5.894531 -6.09375 6.0625 -6.90625 C 6.226562 -7.726562 6.3125 -8.507812 6.3125 -9.25 C 6.3125 -9.5625 6.238281 -9.796875 6.09375 -9.953125 C 5.957031 -10.109375 5.648438 -10.1875 5.171875 -10.1875 C 4.941406 -10.1875 4.6875 -10.1875 4.40625 -10.1875 C 4.132812 -10.1875 3.84375 -10.175781 3.53125 -10.15625 Z M 1.875 -12 C 1.875 -12.113281 1.867188 -12.265625 1.859375 -12.453125 C 1.859375 -12.640625 1.84375 -12.820312 1.8125 -13 C 1.789062 -13.1875 1.757812 -13.34375 1.71875 -13.46875 C 1.675781 -13.601562 1.628906 -13.671875 1.578125 -13.671875 C 1.535156 -13.671875 1.472656 -13.609375 1.390625 -13.484375 C 1.316406 -13.359375 1.238281 -13.207031 1.15625 -13.03125 C 1.070312 -12.863281 1 -12.679688 0.9375 -12.484375 C 0.875 -12.285156 0.828125 -12.125 0.796875 -12 Z M 1.875 -12"/></g><g id="p"><path d="M 4.96875 -19.40625 C 4.96875 -18.78125 4.75 -18.25 4.3125 -17.8125 C 3.875 -17.375 3.34375 -17.15625 2.71875 -17.15625 C 2.09375 -17.15625 1.5625 -17.375 1.125 -17.8125 C 0.6875 -18.25 0.46875 -18.78125 0.46875 -19.40625 C 0.46875 -19.71875 0.523438 -20.007812 0.640625 -20.28125 C 0.753906 -20.5625 0.914062 -20.800781 1.125 -21 C 1.332031 -21.207031 1.570312 -21.367188 1.84375 -21.484375 C 2.113281 -21.597656 2.40625 -21.65625 2.71875 -21.65625 C 3.03125 -21.65625 3.320312 -21.597656 3.59375 -21.484375 C 3.863281 -21.367188 4.101562 -21.207031 4.3125 -21 C 4.519531 -20.800781 4.679688 -20.5625 4.796875 -20.28125 C 4.910156 -20.007812 4.96875 -19.71875 4.96875 -19.40625 Z M 0.96875 -4.921875 C 0.96875 -7.296875 1.113281 -9.660156 1.40625 -12.015625 C 1.4375 -12.242188 1.539062 -12.441406 1.71875 -12.609375 C 1.894531 -12.785156 2.125 -12.875 2.40625 -12.875 C 2.644531 -12.875 2.847656 -12.78125 3.015625 -12.59375 C 3.179688 -12.40625 3.265625 -12.1875 3.265625 -11.9375 C 3.265625 -11.84375 3.242188 -11.546875 3.203125 -11.046875 C 3.160156 -10.554688 3.109375 -9.96875 3.046875 -9.28125 C 2.992188 -8.601562 2.945312 -7.878906 2.90625 -7.109375 C 2.863281 -6.335938 2.84375 -5.632812 2.84375 -5 C 2.84375 -4.125 2.925781 -3.414062 3.09375 -2.875 C 3.269531 -2.34375 3.492188 -1.925781 3.765625 -1.625 C 4.035156 -1.332031 4.320312 -1.132812 4.625 -1.03125 C 4.9375 -0.9375 5.234375 -0.890625 5.515625 -0.890625 C 5.972656 -0.890625 6.445312 -1.050781 6.9375 -1.375 C 7.4375 -1.707031 7.945312 -2.171875 8.46875 -2.765625 C 8.988281 -3.359375 9.507812 -4.070312 10.03125 -4.90625 C 10.5625 -5.738281 11.082031 -6.664062 11.59375 -7.6875 C 11.675781 -7.851562 11.789062 -7.976562 11.9375 -8.0625 C 12.09375 -8.15625 12.257812 -8.203125 12.4375 -8.203125 C 12.695312 -8.203125 12.914062 -8.101562 13.09375 -7.90625 C 13.269531 -7.707031 13.359375 -7.492188 13.359375 -7.265625 C 13.359375 -7.097656 13.320312 -6.957031 13.25 -6.84375 C 13.050781 -6.46875 12.800781 -6.007812 12.5 -5.46875 C 12.207031 -4.925781 11.867188 -4.363281 11.484375 -3.78125 C 11.109375 -3.207031 10.691406 -2.632812 10.234375 -2.0625 C 9.785156 -1.5 9.304688 -0.988281 8.796875 -0.53125 C 8.285156 -0.0820312 7.75 0.28125 7.1875 0.5625 C 6.632812 0.84375 6.066406 0.984375 5.484375 0.984375 C 4.742188 0.984375 4.09375 0.828125 3.53125 0.515625 C 2.96875 0.203125 2.492188 -0.210938 2.109375 -0.734375 C 1.722656 -1.265625 1.4375 -1.890625 1.25 -2.609375 C 1.0625 -3.328125 0.96875 -4.097656 0.96875 -4.921875 Z M 3.578125 -19.40625 C 3.578125 -19.632812 3.488281 -19.835938 3.3125 -20.015625 C 3.144531 -20.191406 2.945312 -20.28125 2.71875 -20.28125 C 2.488281 -20.28125 2.289062 -20.191406 2.125 -20.015625 C 1.957031 -19.835938 1.875 -19.632812 1.875 -19.40625 C 1.875 -19.175781 1.957031 -18.976562 2.125 -18.8125 C 2.289062 -18.644531 2.488281 -18.5625 2.71875 -18.5625 C 2.945312 -18.5625 3.144531 -18.644531 3.3125 -18.8125 C 3.488281 -18.976562 3.578125 -19.175781 3.578125 -19.40625 Z M 3.578125 -19.40625"/></g><g id="q"><path d="M 17.109375 -6.84375 C 17.015625 -6.664062 16.847656 -6.335938 16.609375 -5.859375 C 16.367188 -5.378906 16.046875 -4.835938 15.640625 -4.234375 C 15.234375 -3.640625 14.75 -3.019531 14.1875 -2.375 C 13.632812 -1.726562 12.992188 -1.132812 12.265625 -0.59375 C 11.535156 -0.0625 10.722656 0.375 9.828125 0.71875 C 8.929688 1.0625 7.957031 1.234375 6.90625 1.234375 C 5.957031 1.234375 5.117188 1.0625 4.390625 0.71875 C 3.671875 0.382812 3.054688 -0.0859375 2.546875 -0.703125 C 2.035156 -1.316406 1.644531 -2.046875 1.375 -2.890625 C 1.113281 -3.734375 0.984375 -4.664062 0.984375 -5.6875 C 0.984375 -6.675781 1.125 -7.601562 1.40625 -8.46875 C 1.6875 -9.332031 2.066406 -10.085938 2.546875 -10.734375 C 3.035156 -11.378906 3.601562 -11.882812 4.25 -12.25 C 4.894531 -12.625 5.582031 -12.8125 6.3125 -12.8125 C 6.851562 -12.8125 7.34375 -12.710938 7.78125 -12.515625 C 8.226562 -12.328125 8.601562 -12.078125 8.90625 -11.765625 C 9.21875 -11.453125 9.457031 -11.101562 9.625 -10.71875 C 9.800781 -10.34375 9.890625 -9.96875 9.890625 -9.59375 C 9.890625 -9.226562 9.84375 -8.890625 9.75 -8.578125 C 9.664062 -8.265625 9.550781 -7.988281 9.40625 -7.75 C 9.269531 -7.507812 9.109375 -7.316406 8.921875 -7.171875 C 8.742188 -7.035156 8.5625 -6.96875 8.375 -6.96875 C 8.101562 -6.96875 7.878906 -7.054688 7.703125 -7.234375 C 7.523438 -7.421875 7.4375 -7.644531 7.4375 -7.90625 C 7.4375 -8.039062 7.460938 -8.15625 7.515625 -8.25 C 7.578125 -8.351562 7.644531 -8.457031 7.71875 -8.5625 C 7.800781 -8.675781 7.867188 -8.8125 7.921875 -8.96875 C 7.984375 -9.125 8.015625 -9.320312 8.015625 -9.5625 C 8.015625 -9.914062 7.851562 -10.226562 7.53125 -10.5 C 7.207031 -10.78125 6.800781 -10.921875 6.3125 -10.921875 C 5.84375 -10.921875 5.398438 -10.78125 4.984375 -10.5 C 4.566406 -10.226562 4.195312 -9.851562 3.875 -9.375 C 3.5625 -8.90625 3.3125 -8.351562 3.125 -7.71875 C 2.9375 -7.09375 2.84375 -6.425781 2.84375 -5.71875 C 2.84375 -5.039062 2.925781 -4.394531 3.09375 -3.78125 C 3.257812 -3.175781 3.503906 -2.632812 3.828125 -2.15625 C 4.160156 -1.6875 4.578125 -1.3125 5.078125 -1.03125 C 5.578125 -0.757812 6.175781 -0.625 6.875 -0.625 C 7.757812 -0.625 8.582031 -0.78125 9.34375 -1.09375 C 10.101562 -1.414062 10.796875 -1.820312 11.421875 -2.3125 C 12.046875 -2.8125 12.597656 -3.351562 13.078125 -3.9375 C 13.554688 -4.53125 13.960938 -5.082031 14.296875 -5.59375 C 14.640625 -6.113281 14.90625 -6.566406 15.09375 -6.953125 C 15.28125 -7.347656 15.390625 -7.59375 15.421875 -7.6875 C 15.492188 -7.851562 15.609375 -7.976562 15.765625 -8.0625 C 15.921875 -8.15625 16.085938 -8.203125 16.265625 -8.203125 C 16.546875 -8.203125 16.769531 -8.101562 16.9375 -7.90625 C 17.113281 -7.707031 17.203125 -7.488281 17.203125 -7.25 C 17.203125 -7.144531 17.171875 -7.007812 17.109375 -6.84375 Z M 17.109375 -6.84375"/></g><g id="s"><path d="M 2.875 1.21875 C 4.09375 0.664062 5.195312 0.0351562 6.1875 -0.671875 C 7.1875 -1.378906 8.078125 -2.125 8.859375 -2.90625 C 9.648438 -3.6875 10.320312 -4.484375 10.875 -5.296875 C 11.425781 -6.117188 11.863281 -6.898438 12.1875 -7.640625 C 12.332031 -8.003906 12.613281 -8.1875 13.03125 -8.1875 C 13.3125 -8.1875 13.535156 -8.085938 13.703125 -7.890625 C 13.878906 -7.703125 13.96875 -7.492188 13.96875 -7.265625 C 13.96875 -7.140625 13.941406 -7.019531 13.890625 -6.90625 C 13.535156 -6.09375 13.078125 -5.253906 12.515625 -4.390625 C 11.953125 -3.523438 11.269531 -2.675781 10.46875 -1.84375 C 9.664062 -1.007812 8.726562 -0.207031 7.65625 0.5625 C 6.59375 1.34375 5.367188 2.050781 3.984375 2.6875 C 4.867188 3.613281 5.640625 4.640625 6.296875 5.765625 C 6.960938 6.898438 7.515625 8.078125 7.953125 9.296875 C 8.390625 10.515625 8.71875 11.742188 8.9375 12.984375 C 9.15625 14.234375 9.265625 15.425781 9.265625 16.5625 C 9.265625 17.601562 9.171875 18.582031 8.984375 19.5 C 8.796875 20.414062 8.515625 21.207031 8.140625 21.875 C 7.773438 22.550781 7.328125 23.082031 6.796875 23.46875 C 6.273438 23.863281 5.675781 24.0625 5 24.0625 C 4.007812 24.0625 3.238281 23.691406 2.6875 22.953125 C 2.144531 22.222656 1.742188 21.207031 1.484375 19.90625 C 1.234375 18.613281 1.085938 17.085938 1.046875 15.328125 C 1.003906 13.578125 0.984375 11.675781 0.984375 9.625 C 0.984375 8.59375 0.984375 7.394531 0.984375 6.03125 C 0.984375 4.675781 0.988281 3.21875 1 1.65625 C 1.007812 0.101562 1.015625 -1.519531 1.015625 -3.21875 C 1.023438 -4.925781 1.039062 -6.632812 1.0625 -8.34375 C 1.082031 -10.0625 1.097656 -11.75 1.109375 -13.40625 C 1.128906 -15.070312 1.15625 -16.644531 1.1875 -18.125 C 1.238281 -20.957031 1.335938 -23.484375 1.484375 -25.703125 C 1.628906 -27.929688 1.863281 -29.8125 2.1875 -31.34375 C 2.519531 -32.882812 2.972656 -34.050781 3.546875 -34.84375 C 4.117188 -35.644531 4.84375 -36.046875 5.71875 -36.046875 C 6.40625 -36.046875 6.988281 -35.851562 7.46875 -35.46875 C 7.945312 -35.082031 8.332031 -34.5625 8.625 -33.90625 C 8.925781 -33.257812 9.140625 -32.5 9.265625 -31.625 C 9.398438 -30.75 9.46875 -29.832031 9.46875 -28.875 C 9.46875 -26.863281 9.296875 -24.921875 8.953125 -23.046875 C 8.609375 -21.171875 8.140625 -19.347656 7.546875 -17.578125 C 6.953125 -15.816406 6.253906 -14.09375 5.453125 -12.40625 C 4.648438 -10.726562 3.796875 -9.070312 2.890625 -7.4375 C 2.890625 -6.757812 2.890625 -6.03125 2.890625 -5.25 C 2.890625 -4.46875 2.890625 -3.6875 2.890625 -2.90625 C 2.890625 -2.125 2.882812 -1.375 2.875 -0.65625 C 2.875 0.0625 2.875 0.6875 2.875 1.21875 Z M 2.9375 -11.25 C 3.613281 -12.519531 4.234375 -13.859375 4.796875 -15.265625 C 5.367188 -16.679688 5.863281 -18.140625 6.28125 -19.640625 C 6.695312 -21.140625 7.019531 -22.671875 7.25 -24.234375 C 7.476562 -25.796875 7.59375 -27.367188 7.59375 -28.953125 C 7.59375 -29.742188 7.554688 -30.460938 7.484375 -31.109375 C 7.410156 -31.753906 7.296875 -32.300781 7.140625 -32.75 C 6.984375 -33.207031 6.785156 -33.5625 6.546875 -33.8125 C 6.304688 -34.070312 6.03125 -34.203125 5.71875 -34.203125 C 5.382812 -34.203125 5.09375 -34.003906 4.84375 -33.609375 C 4.59375 -33.210938 4.378906 -32.679688 4.203125 -32.015625 C 4.023438 -31.359375 3.875 -30.597656 3.75 -29.734375 C 3.625 -28.878906 3.519531 -27.988281 3.4375 -27.0625 C 3.351562 -26.132812 3.285156 -25.203125 3.234375 -24.265625 C 3.191406 -23.335938 3.15625 -22.460938 3.125 -21.640625 C 3.101562 -20.828125 3.085938 -20.109375 3.078125 -19.484375 C 3.066406 -18.859375 3.0625 -18.390625 3.0625 -18.078125 C 3.050781 -17.421875 3.039062 -16.832031 3.03125 -16.3125 C 3.019531 -15.800781 3.003906 -15.296875 2.984375 -14.796875 C 2.972656 -14.304688 2.960938 -13.78125 2.953125 -13.21875 C 2.941406 -12.664062 2.9375 -12.007812 2.9375 -11.25 Z M 2.875 4.25 C 2.875 5.289062 2.867188 6.257812 2.859375 7.15625 C 2.847656 8.050781 2.84375 8.875 2.84375 9.625 C 2.84375 11.15625 2.847656 12.671875 2.859375 14.171875 C 2.878906 15.671875 2.957031 17.015625 3.09375 18.203125 C 3.238281 19.398438 3.453125 20.363281 3.734375 21.09375 C 4.023438 21.832031 4.445312 22.203125 5 22.203125 C 5.488281 22.203125 5.890625 21.976562 6.203125 21.53125 C 6.515625 21.09375 6.757812 20.566406 6.9375 19.953125 C 7.113281 19.347656 7.234375 18.726562 7.296875 18.09375 C 7.359375 17.457031 7.390625 16.941406 7.390625 16.546875 C 7.390625 15.535156 7.296875 14.476562 7.109375 13.375 C 6.921875 12.269531 6.628906 11.175781 6.234375 10.09375 C 5.847656 9.019531 5.375 7.976562 4.8125 6.96875 C 4.257812 5.96875 3.613281 5.0625 2.875 4.25 Z M 2.875 4.25"/></g><g id="t"><path d="M 6.421875 -2.21875 C 6.691406 -2.769531 7 -3.367188 7.34375 -4.015625 C 7.6875 -4.671875 8.054688 -5.332031 8.453125 -6 C 8.847656 -6.664062 9.265625 -7.328125 9.703125 -7.984375 C 10.140625 -8.640625 10.597656 -9.265625 11.078125 -9.859375 C 11.554688 -10.441406 12.035156 -10.859375 12.515625 -11.109375 C 13.003906 -11.367188 13.460938 -11.5 13.890625 -11.5 C 14.753906 -11.5 15.390625 -11.1875 15.796875 -10.5625 C 16.210938 -9.9375 16.421875 -9.160156 16.421875 -8.234375 C 16.421875 -8.015625 16.40625 -7.753906 16.375 -7.453125 C 16.351562 -7.148438 16.328125 -6.820312 16.296875 -6.46875 C 16.273438 -6.125 16.253906 -5.773438 16.234375 -5.421875 C 16.210938 -5.066406 16.203125 -4.734375 16.203125 -4.421875 C 16.203125 -4.023438 16.21875 -3.644531 16.25 -3.28125 C 16.289062 -2.925781 16.367188 -2.609375 16.484375 -2.328125 C 16.609375 -2.054688 16.773438 -1.84375 16.984375 -1.6875 C 17.203125 -1.53125 17.484375 -1.453125 17.828125 -1.453125 C 18.453125 -1.453125 19.0625 -1.695312 19.65625 -2.1875 C 20.25 -2.675781 20.796875 -3.253906 21.296875 -3.921875 C 21.804688 -4.585938 22.242188 -5.265625 22.609375 -5.953125 C 22.984375 -6.648438 23.257812 -7.210938 23.4375 -7.640625 C 23.519531 -7.816406 23.640625 -7.953125 23.796875 -8.046875 C 23.953125 -8.148438 24.125 -8.203125 24.3125 -8.203125 C 24.59375 -8.203125 24.816406 -8.097656 24.984375 -7.890625 C 25.160156 -7.691406 25.25 -7.476562 25.25 -7.25 C 25.25 -7.132812 25.222656 -7.019531 25.171875 -6.90625 C 25.109375 -6.769531 24.976562 -6.492188 24.78125 -6.078125 C 24.582031 -5.671875 24.320312 -5.195312 24 -4.65625 C 23.675781 -4.125 23.300781 -3.554688 22.875 -2.953125 C 22.445312 -2.347656 21.972656 -1.796875 21.453125 -1.296875 C 20.929688 -0.804688 20.367188 -0.394531 19.765625 -0.0625 C 19.160156 0.257812 18.53125 0.421875 17.875 0.421875 C 17.132812 0.421875 16.53125 0.28125 16.0625 0 C 15.601562 -0.289062 15.242188 -0.671875 14.984375 -1.140625 C 14.722656 -1.617188 14.546875 -2.140625 14.453125 -2.703125 C 14.359375 -3.273438 14.3125 -3.847656 14.3125 -4.421875 C 14.3125 -4.671875 14.320312 -4.953125 14.34375 -5.265625 C 14.375 -5.578125 14.410156 -5.90625 14.453125 -6.25 C 14.492188 -6.601562 14.523438 -6.953125 14.546875 -7.296875 C 14.578125 -7.640625 14.59375 -7.96875 14.59375 -8.28125 C 14.59375 -8.8125 14.507812 -9.171875 14.34375 -9.359375 C 14.175781 -9.546875 14.023438 -9.640625 13.890625 -9.640625 C 13.628906 -9.640625 13.328125 -9.488281 12.984375 -9.1875 C 12.648438 -8.882812 12.296875 -8.484375 11.921875 -7.984375 C 11.554688 -7.492188 11.179688 -6.9375 10.796875 -6.3125 C 10.410156 -5.695312 10.046875 -5.082031 9.703125 -4.46875 C 9.367188 -3.863281 9.054688 -3.285156 8.765625 -2.734375 C 8.472656 -2.179688 8.242188 -1.722656 8.078125 -1.359375 C 7.753906 -0.671875 7.425781 -0.207031 7.09375 0.03125 C 6.769531 0.269531 6.429688 0.390625 6.078125 0.390625 C 5.597656 0.390625 5.210938 0.25 4.921875 -0.03125 C 4.640625 -0.320312 4.5 -0.734375 4.5 -1.265625 C 4.5 -1.378906 4.515625 -1.601562 4.546875 -1.9375 C 4.578125 -2.28125 4.617188 -2.6875 4.671875 -3.15625 C 4.722656 -3.625 4.769531 -4.128906 4.8125 -4.671875 C 4.863281 -5.210938 4.914062 -5.75 4.96875 -6.28125 C 5.019531 -6.820312 5.0625 -7.320312 5.09375 -7.78125 C 5.125 -8.25 5.140625 -8.640625 5.140625 -8.953125 C 5.140625 -9.359375 5.125 -9.75 5.09375 -10.125 C 5.0625 -10.507812 4.992188 -10.742188 4.890625 -10.828125 C 4.742188 -10.773438 4.476562 -10.460938 4.09375 -9.890625 C 3.71875 -9.328125 3.234375 -8.332031 2.640625 -6.90625 C 2.554688 -6.71875 2.429688 -6.570312 2.265625 -6.46875 C 2.109375 -6.375 1.9375 -6.328125 1.75 -6.328125 C 1.46875 -6.328125 1.242188 -6.421875 1.078125 -6.609375 C 0.921875 -6.804688 0.84375 -7.023438 0.84375 -7.265625 C 0.84375 -7.378906 0.867188 -7.503906 0.921875 -7.640625 C 1.660156 -9.398438 2.351562 -10.695312 3 -11.53125 C 3.65625 -12.363281 4.304688 -12.78125 4.953125 -12.78125 C 5.328125 -12.78125 5.644531 -12.6875 5.90625 -12.5 C 6.175781 -12.3125 6.390625 -12.0625 6.546875 -11.75 C 6.703125 -11.4375 6.816406 -11.085938 6.890625 -10.703125 C 6.960938 -10.328125 7 -9.941406 7 -9.546875 C 7 -9.242188 6.976562 -8.78125 6.9375 -8.15625 C 6.894531 -7.53125 6.835938 -6.859375 6.765625 -6.140625 C 6.703125 -5.421875 6.640625 -4.707031 6.578125 -4 C 6.523438 -3.289062 6.472656 -2.695312 6.421875 -2.21875 Z M 6.421875 -2.21875"/></g><g id="u"><path d="M 10.53125 -7.203125 C 11.34375 -3.390625 12.515625 -1.484375 14.046875 -1.484375 C 14.640625 -1.484375 15.207031 -1.703125 15.75 -2.140625 C 16.289062 -2.578125 16.796875 -3.113281 17.265625 -3.75 C 17.734375 -4.382812 18.148438 -5.054688 18.515625 -5.765625 C 18.878906 -6.472656 19.175781 -7.085938 19.40625 -7.609375 C 19.570312 -8.003906 19.863281 -8.203125 20.28125 -8.203125 C 20.539062 -8.203125 20.757812 -8.101562 20.9375 -7.90625 C 21.125 -7.707031 21.21875 -7.492188 21.21875 -7.265625 C 21.21875 -7.140625 21.191406 -7.023438 21.140625 -6.921875 C 21.023438 -6.640625 20.851562 -6.265625 20.625 -5.796875 C 20.40625 -5.328125 20.132812 -4.820312 19.8125 -4.28125 C 19.5 -3.75 19.144531 -3.203125 18.75 -2.640625 C 18.351562 -2.085938 17.914062 -1.585938 17.4375 -1.140625 C 16.957031 -0.691406 16.445312 -0.320312 15.90625 -0.03125 C 15.375 0.25 14.8125 0.390625 14.21875 0.390625 C 13.113281 0.390625 12.164062 0.0078125 11.375 -0.75 C 10.582031 -1.519531 9.898438 -2.785156 9.328125 -4.546875 C 8.535156 -2.867188 7.734375 -1.648438 6.921875 -0.890625 C 6.117188 -0.128906 5.242188 0.25 4.296875 0.25 C 3.804688 0.25 3.328125 0.171875 2.859375 0.015625 C 2.398438 -0.140625 2 -0.398438 1.65625 -0.765625 C 1.3125 -1.128906 1.03125 -1.59375 0.8125 -2.15625 C 0.601562 -2.726562 0.5 -3.425781 0.5 -4.25 C 0.5 -5.382812 0.695312 -6.429688 1.09375 -7.390625 C 1.488281 -8.347656 2 -9.164062 2.625 -9.84375 C 3.25 -10.53125 3.941406 -11.0625 4.703125 -11.4375 C 5.472656 -11.820312 6.238281 -12.015625 7 -12.015625 C 7.25 -12.015625 7.460938 -11.925781 7.640625 -11.75 C 7.816406 -11.582031 7.90625 -11.367188 7.90625 -11.109375 C 7.90625 -10.867188 7.832031 -10.660156 7.6875 -10.484375 C 7.539062 -10.304688 7.34375 -10.195312 7.09375 -10.15625 C 6.601562 -10.09375 6.078125 -9.9375 5.515625 -9.6875 C 4.953125 -9.445312 4.4375 -9.085938 3.96875 -8.609375 C 3.5 -8.140625 3.109375 -7.539062 2.796875 -6.8125 C 2.492188 -6.09375 2.34375 -5.234375 2.34375 -4.234375 C 2.34375 -3.398438 2.507812 -2.753906 2.84375 -2.296875 C 3.1875 -1.835938 3.679688 -1.609375 4.328125 -1.609375 C 4.585938 -1.609375 4.863281 -1.675781 5.15625 -1.8125 C 5.457031 -1.957031 5.773438 -2.234375 6.109375 -2.640625 C 6.453125 -3.054688 6.828125 -3.640625 7.234375 -4.390625 C 7.640625 -5.148438 8.085938 -6.148438 8.578125 -7.390625 C 8.296875 -8.835938 8.039062 -10.507812 7.8125 -12.40625 C 7.582031 -14.300781 7.46875 -16.421875 7.46875 -18.765625 C 7.46875 -19.785156 7.5 -20.851562 7.5625 -21.96875 C 7.632812 -23.082031 7.742188 -24.171875 7.890625 -25.234375 C 8.035156 -26.296875 8.234375 -27.304688 8.484375 -28.265625 C 8.734375 -29.222656 9.035156 -30.0625 9.390625 -30.78125 C 9.742188 -31.507812 10.15625 -32.082031 10.625 -32.5 C 11.101562 -32.925781 11.648438 -33.140625 12.265625 -33.140625 C 12.804688 -33.140625 13.265625 -32.988281 13.640625 -32.6875 C 14.023438 -32.394531 14.335938 -31.984375 14.578125 -31.453125 C 14.816406 -30.921875 14.992188 -30.285156 15.109375 -29.546875 C 15.222656 -28.804688 15.28125 -27.988281 15.28125 -27.09375 C 15.28125 -25.1875 15.113281 -23.273438 14.78125 -21.359375 C 14.457031 -19.453125 14.050781 -17.625 13.5625 -15.875 C 13.070312 -14.125 12.554688 -12.503906 12.015625 -11.015625 C 11.472656 -9.535156 10.976562 -8.265625 10.53125 -7.203125 Z M 13.421875 -27.125 C 13.421875 -27.539062 13.410156 -27.984375 13.390625 -28.453125 C 13.367188 -28.929688 13.3125 -29.378906 13.21875 -29.796875 C 13.125 -30.222656 13.003906 -30.578125 12.859375 -30.859375 C 12.710938 -31.140625 12.515625 -31.28125 12.265625 -31.28125 C 11.847656 -31.28125 11.460938 -30.914062 11.109375 -30.1875 C 10.753906 -29.46875 10.445312 -28.515625 10.1875 -27.328125 C 9.925781 -26.148438 9.71875 -24.816406 9.5625 -23.328125 C 9.40625 -21.835938 9.328125 -20.332031 9.328125 -18.8125 C 9.328125 -17.363281 9.382812 -15.914062 9.5 -14.46875 C 9.613281 -13.019531 9.742188 -11.722656 9.890625 -10.578125 C 10.367188 -11.847656 10.820312 -13.15625 11.25 -14.5 C 11.675781 -15.84375 12.050781 -17.210938 12.375 -18.609375 C 12.695312 -20.015625 12.953125 -21.429688 13.140625 -22.859375 C 13.328125 -24.285156 13.421875 -25.707031 13.421875 -27.125 Z M 13.421875 -27.125"/></g><g id="v"><path d="M 3.90625 -2.71875 C 4.25 -2.238281 4.691406 -1.851562 5.234375 -1.5625 C 5.785156 -1.28125 6.457031 -1.140625 7.25 -1.140625 C 8.050781 -1.140625 8.78125 -1.332031 9.4375 -1.71875 C 10.101562 -2.101562 10.707031 -2.609375 11.25 -3.234375 C 11.789062 -3.859375 12.273438 -4.554688 12.703125 -5.328125 C 13.140625 -6.109375 13.53125 -6.890625 13.875 -7.671875 C 13.957031 -7.847656 14.070312 -7.976562 14.21875 -8.0625 C 14.363281 -8.15625 14.53125 -8.203125 14.71875 -8.203125 C 15 -8.203125 15.222656 -8.101562 15.390625 -7.90625 C 15.566406 -7.707031 15.65625 -7.492188 15.65625 -7.265625 C 15.65625 -7.179688 15.644531 -7.109375 15.625 -7.046875 C 15.613281 -6.992188 15.585938 -6.9375 15.546875 -6.875 C 14.410156 -4.363281 13.171875 -2.472656 11.828125 -1.203125 C 10.484375 0.0546875 8.960938 0.703125 7.265625 0.734375 C 6.179688 0.734375 5.242188 0.523438 4.453125 0.109375 C 3.660156 -0.304688 3.007812 -0.847656 2.5 -1.515625 C 1.988281 -2.179688 1.609375 -2.9375 1.359375 -3.78125 C 1.109375 -4.625 0.984375 -5.46875 0.984375 -6.3125 C 0.984375 -7.144531 1.085938 -7.914062 1.296875 -8.625 C 1.503906 -9.332031 1.800781 -9.953125 2.1875 -10.484375 C 2.570312 -11.015625 3.03125 -11.425781 3.5625 -11.71875 C 4.101562 -12.019531 4.695312 -12.171875 5.34375 -12.171875 C 5.71875 -12.171875 6.085938 -12.09375 6.453125 -11.9375 C 6.828125 -11.78125 7.160156 -11.554688 7.453125 -11.265625 C 7.753906 -10.972656 7.992188 -10.617188 8.171875 -10.203125 C 8.359375 -9.796875 8.453125 -9.328125 8.453125 -8.796875 C 8.453125 -8.117188 8.335938 -7.484375 8.109375 -6.890625 C 7.878906 -6.304688 7.5625 -5.753906 7.15625 -5.234375 C 6.75 -4.722656 6.265625 -4.253906 5.703125 -3.828125 C 5.148438 -3.398438 4.550781 -3.03125 3.90625 -2.71875 Z M 3.171875 -4.328125 C 3.679688 -4.546875 4.144531 -4.816406 4.5625 -5.140625 C 4.976562 -5.472656 5.332031 -5.835938 5.625 -6.234375 C 5.925781 -6.628906 6.160156 -7.046875 6.328125 -7.484375 C 6.492188 -7.921875 6.578125 -8.359375 6.578125 -8.796875 C 6.578125 -9.296875 6.453125 -9.671875 6.203125 -9.921875 C 5.953125 -10.179688 5.664062 -10.3125 5.34375 -10.3125 C 4.894531 -10.3125 4.515625 -10.1875 4.203125 -9.9375 C 3.890625 -9.6875 3.632812 -9.363281 3.4375 -8.96875 C 3.238281 -8.570312 3.09375 -8.128906 3 -7.640625 C 2.914062 -7.160156 2.875 -6.679688 2.875 -6.203125 C 2.875 -5.910156 2.898438 -5.597656 2.953125 -5.265625 C 3.015625 -4.929688 3.085938 -4.617188 3.171875 -4.328125 Z M 3.171875 -4.328125"/></g></defs><g clip-path="url(#a)"><g clip-path="url(#b)"><g clip-path="url(#c)"><path fill="#FFF" d="M 97.117188 40.734375 C 97.132812 40.976562 97.214844 41.1875 97.367188 41.375 C 97.519531 41.558594 97.714844 41.679688 97.945312 41.734375 C 98.175781 41.789062 98.402344 41.769531 98.621094 41.671875 C 98.839844 41.578125 99.007812 41.425781 99.125 41.214844 L 101.257812 37.5625 L 101.539062 42.652344 C 101.574219 43.253906 102.082031 43.710938 102.675781 43.679688 L 103.75 43.617188 L 104.078125 49.582031 C 104.292969 53.460938 107.605469 56.453125 111.449219 56.238281 C 111.59375 56.230469 111.730469 56.195312 111.859375 56.132812 C 111.859375 56.132812 111.859375 56.128906 111.863281 56.128906 C 115.484375 55.695312 118.242188 52.535156 118.035156 48.804688 L 117.460938 38.507812 C 117.296875 35.5 119.550781 32.957031 122.527344 32.789062 L 124.675781 32.671875 C 124.820312 32.664062 124.957031 32.632812 125.085938 32.570312 C 125.21875 32.507812 125.332031 32.425781 125.425781 32.316406 C 125.523438 32.210938 125.597656 32.085938 125.644531 31.949219 C 125.691406 31.8125 125.710938 31.671875 125.703125 31.527344 C 125.695312 31.382812 125.660156 31.242188 125.597656 31.113281 C 125.535156 30.980469 125.449219 30.867188 125.34375 30.773438 C 125.234375 30.675781 125.113281 30.605469 124.976562 30.558594 C 124.839844 30.511719 124.699219 30.492188 124.554688 30.503906 L 122.410156 30.621094 C 118.269531 30.851562 115.082031 34.449219 115.316406 38.628906 L 115.886719 48.925781 C 116.039062 51.632812 114.007812 53.921875 111.328125 54.070312 C 108.644531 54.21875 106.375 52.167969 106.226562 49.460938 L 105.894531 43.5 L 106.96875 43.441406 C 107.5625 43.40625 108.015625 42.894531 107.980469 42.296875 L 107.378906 31.457031 C 107.347656 30.859375 106.839844 30.398438 106.246094 30.433594 L 101.953125 30.671875 C 101.359375 30.703125 100.90625 31.214844 100.941406 31.8125 L 101.042969 33.652344 L 97.273438 40.113281 C 97.160156 40.304688 97.105469 40.511719 97.117188 40.734375 Z M 97.117188 40.734375"/></g></g></g><g clip-path="url(#d)"><path fill="#FFF" d="M 58.078125 19.785156 C 64.5625 20.449219 70.382812 23.191406 76.585938 24.773438 C 84.097656 26.6875 91.347656 28.882812 99.289062 28.75 C 100.355469 28.722656 104.808594 28.320312 105.433594 28.1875 C 96.9375 26.867188 88.523438 25.457031 80.234375 23.429688 C 72.457031 21.523438 64.753906 18.523438 56.703125 17.503906 C 51.117188 16.78125 46.035156 17.316406 40.125 19.015625 C 27.582031 22.625 16.066406 27.34375 7.050781 36.234375 C 21.070312 26.738281 39.003906 17.84375 58.078125 19.785156 Z M 68.5 38.214844 C 59.414062 34.984375 35.675781 38.21875 24.246094 52.734375 C 24.246094 52.734375 47.222656 34.125 70.585938 40.886719 C 90.910156 46.765625 103.070312 44.007812 103.070312 44.007812 L 99.589844 43.253906 C 99.589844 43.253906 80.152344 42.355469 68.5 38.214844 Z M 22.019531 43.589844 C 33.445312 29.074219 58.710938 26.777344 67.890625 29.734375 C 80.257812 33.726562 96.480469 34.082031 96.480469 34.082031 L 100.84375 34.867188 C 100.84375 34.867188 92.210938 37.453125 68.359375 31.742188 C 44.703125 26.082031 22.019531 43.589844 22.019531 43.589844"/></g><path fill="#F89A2E" d="M 50.910156 20.085938 C 50.910156 20.085938 50.464844 23.59375 48.523438 24.355469 C 48.523438 24.355469 50.773438 25.429688 50.933594 27.703125 C 50.945312 27.851562 51.699219 24.636719 53.53125 24.152344 C 53.53125 24.152344 51.175781 23.3125 50.910156 20.085938 Z M 77.140625 26.40625 C 77.121094 26.105469 75.59375 32.613281 71.882812 33.601562 C 71.882812 33.601562 76.648438 35.292969 77.1875 41.828125 C 77.1875 41.828125 78.082031 35.199219 81.414062 34.261719 C 81.414062 34.261719 77.46875 31.015625 77.140625 26.40625 Z M 61.421875 41.828125 L 63.402344 40.054688 L 66.527344 11.921875 L 65.382812 9.324219 Z M 38.972656 12.398438 L 41.214844 26.800781 L 43.457031 26.070312 L 40.621094 11.753906 Z M 19.117188 17.179688 L 20.476562 36.242188 L 21.617188 35.035156 L 21.113281 17.199219 Z M 28.765625 28.695312 C 28.292969 28.359375 27.429688 28.160156 26.898438 28.460938 C 26.730469 28.46875 26.566406 28.53125 26.429688 28.667969 C 25.726562 29.378906 25.753906 30.480469 26.484375 31.15625 C 27.296875 31.90625 28.582031 31.964844 29.351562 31.136719 C 30.085938 30.347656 29.515625 29.226562 28.765625 28.695312 Z M 94.285156 41.640625 C 93.515625 42.46875 92.234375 42.410156 91.421875 41.660156 C 90.691406 40.984375 90.660156 39.882812 91.367188 39.175781 C 91.503906 39.035156 91.664062 38.976562 91.832031 38.964844 C 92.367188 38.664062 93.226562 38.863281 93.703125 39.203125 C 94.449219 39.730469 95.019531 40.851562 94.285156 41.640625"/><g clip-path="url(#e)"><path fill="#74D0C9" d="M 48.644531 46.855469 C 47.664062 46.710938 46.652344 47.167969 45.984375 47.902344 C 45.316406 48.640625 44.960938 49.621094 44.835938 50.605469 C 44.785156 51.015625 44.769531 51.441406 44.898438 51.832031 C 45.027344 52.222656 45.320312 52.578125 45.71875 52.691406 C 45.984375 52.765625 46.269531 52.730469 46.53125 52.648438 C 47.273438 52.425781 47.886719 51.890625 48.332031 51.261719 C 48.777344 50.628906 49.070312 49.90625 49.332031 49.179688 C 49.488281 48.746094 49.632812 48.285156 49.542969 47.835938 C 49.449219 47.386719 49.097656 46.773438 48.644531 46.855469 Z M 75.554688 8.894531 C 75.039062 8.042969 74.15625 7.414062 73.191406 7.003906 C 70.988281 6.070312 68.261719 6.261719 66.242188 7.492188 C 65.625 7.867188 65.039062 8.382812 64.914062 9.054688 C 65.023438 9.65625 65.242188 9.910156 65.609375 10.421875 C 66.390625 11.496094 67.613281 12.269531 68.945312 12.699219 C 70.28125 13.128906 71.71875 13.230469 73.128906 13.148438 C 74.019531 13.101562 74.996094 12.933594 75.535156 12.289062 C 75.746094 12.039062 75.871094 11.738281 75.945312 11.433594 C 76.160156 10.582031 76.019531 9.660156 75.554688 8.894531 Z M 44.742188 23.980469 C 44.261719 23.417969 43.542969 23.207031 42.839844 23.273438 C 42.785156 23.25 42.722656 23.234375 42.65625 23.230469 C 41.066406 23.121094 39.867188 24.089844 38.882812 25.230469 C 38.019531 26.230469 37.316406 27.363281 36.78125 28.574219 C 36.242188 29.804688 35.902344 31.121094 35.757812 32.453125 C 35.632812 33.617188 35.476562 35.261719 36.242188 36.246094 C 37.0625 37.304688 38.648438 37.054688 39.734375 36.617188 C 40.871094 36.152344 41.925781 35.328125 42.746094 34.425781 C 44.378906 32.636719 45.359375 30.335938 45.546875 27.921875 C 45.648438 26.628906 45.625 25.015625 44.742188 23.980469 Z M 24.527344 34.519531 C 24.695312 35.335938 24.429688 36.175781 24.148438 36.960938 C 23.671875 38.28125 23.140625 39.597656 22.332031 40.746094 C 21.519531 41.890625 20.402344 42.863281 19.058594 43.269531 C 18.578125 43.414062 18.058594 43.484375 17.578125 43.347656 C 16.855469 43.140625 16.324219 42.496094 16.089844 41.785156 C 15.855469 41.070312 15.882812 40.300781 15.976562 39.558594 C 16.203125 37.765625 16.84375 35.980469 18.058594 34.644531 C 19.273438 33.304688 21.113281 32.476562 22.902344 32.734375 C 23.71875 32.585938 24.363281 33.703125 24.527344 34.519531"/></g><g clip-path="url(#f)"><path fill="#74D0C9" d="M 47.195312 35.191406 C 47.429688 35.648438 47.878906 43.515625 47.929688 46.851562 C 48.167969 46.820312 48.40625 46.820312 48.644531 46.855469 C 49.097656 46.773438 49.449219 47.386719 49.542969 47.835938 L 48.675781 36.421875 C 51.824219 36.363281 54.796875 35.191406 54.796875 35.191406 L 55.402344 38.554688 L 56.460938 38.433594 L 56.65625 33.386719 C 54.054688 33.671875 46.894531 34.617188 47.195312 35.191406 Z M 39.753906 6.582031 L 41.214844 10.78125 C 41.214844 10.78125 40.621094 16.308594 17.808594 18.125 L 18.410156 15.972656 C 18.410156 15.972656 32.316406 14.453125 39.753906 6.582031"/></g><g clip-path="url(#g)"><path fill="#FBD03B" d="M 115.601562 15.519531 L 116.535156 14.8125 L 116.617188 15.992188 L 117.316406 16.941406 L 116.152344 17.023438 L 115.21875 17.730469 L 115.136719 16.550781 L 114.4375 15.605469 L 115.601562 15.519531"/></g><path fill="#FBD03B" d="M 116.324219 18.003906 L 116.679688 17.730469 L 116.710938 18.183594 L 116.980469 18.546875 L 116.535156 18.582031 L 116.175781 18.851562 L 116.144531 18.398438 L 115.878906 18.035156 L 116.324219 18.003906"/><g clip-path="url(#h)"><path fill="#FBD03B" d="M 94.578125 11.144531 L 95.511719 10.4375 L 95.59375 11.617188 L 96.292969 12.5625 L 95.128906 12.648438 L 94.195312 13.355469 L 94.113281 12.175781 L 93.414062 11.226562 L 94.578125 11.144531"/></g><g clip-path="url(#i)"><path fill="#FBD03B" d="M 94.191406 9.378906 L 94.550781 9.105469 L 94.582031 9.558594 L 94.851562 9.921875 L 94.40625 9.957031 L 94.046875 10.226562 L 94.015625 9.773438 L 93.746094 9.410156 L 94.191406 9.378906"/></g><path fill="#FBD03B" d="M 96.570312 8.914062 L 97.5 8.207031 L 97.585938 9.386719 L 98.285156 10.335938 L 97.121094 10.417969 L 96.1875 11.128906 L 96.105469 9.949219 L 95.40625 9 L 96.570312 8.914062"/><g clip-path="url(#j)"><path fill="#74D0C9" d="M 113.625 15.371094 C 113.625 20.265625 109.929688 24.234375 105.367188 24.234375 C 100.800781 24.234375 97.105469 20.265625 97.105469 15.371094 C 97.105469 10.472656 100.800781 6.507812 105.367188 6.507812 C 109.929688 6.507812 113.625 10.472656 113.625 15.371094"/></g><path fill="#FFF" d="M 113.917969 14.953125 L 113.917969 16.527344 C 113.917969 16.640625 113.828125 16.734375 113.714844 16.734375 C 113.707031 16.734375 113.695312 16.734375 113.6875 16.730469 C 113.679688 16.730469 113.671875 16.726562 113.664062 16.722656 C 112.203125 16.398438 104.710938 14.917969 97.101562 16.859375 C 97.074219 16.863281 97.046875 16.875 97.015625 16.882812 C 97.003906 16.882812 96.992188 16.882812 96.984375 16.878906 L 96.960938 16.875 C 96.875 16.847656 96.8125 16.769531 96.8125 16.675781 L 96.8125 14.964844 C 96.8125 14.871094 96.875 14.785156 96.964844 14.765625 C 96.96875 14.761719 96.976562 14.761719 96.984375 14.761719 C 98.226562 14.375 105.941406 12.203125 113.714844 14.75 L 113.722656 14.75 C 113.757812 14.761719 113.792969 14.773438 113.832031 14.785156 C 113.886719 14.824219 113.917969 14.886719 113.917969 14.953125"/><g clip-path="url(#k)"><path fill="#FFF" d="M 108.5625 52.644531 L 102.164062 52.644531 L 99.535156 22.746094 L 111.195312 22.746094 L 108.5625 52.644531"/></g><path fill="#9491D0" d="M 111.171875 22.988281 L 111.300781 21.519531 L 99.429688 21.519531 L 99.5625 22.988281 L 111.171875 22.988281"/><path fill="#F89A2E" d="M 106.859375 35.546875 L 103.871094 35.546875 L 103.871094 28.90625 L 106.859375 28.90625 L 106.859375 35.546875"/><g clip-path="url(#l)"><g fill="#FFF"><use x="120.523" y="39.491" xmlns:xlink="http://www.w3.org/1999/xlink" xlink:href="#m" xlink:type="simple" xlink:actuate="onLoad" xlink:show="embed"/><use x="132.911" y="39.491" xmlns:xlink="http://www.w3.org/1999/xlink" xlink:href="#n" xlink:type="simple" xlink:actuate="onLoad" xlink:show="embed"/><use x="148.464" y="39.491" xmlns:xlink="http://www.w3.org/1999/xlink" xlink:href="#o" xlink:type="simple" xlink:actuate="onLoad" xlink:show="embed"/><use x="163.819" y="39.491" xmlns:xlink="http://www.w3.org/1999/xlink" xlink:href="#p" xlink:type="simple" xlink:actuate="onLoad" xlink:show="embed"/><use x="174.451" y="39.491" xmlns:xlink="http://www.w3.org/1999/xlink" xlink:href="#q" xlink:type="simple" xlink:actuate="onLoad" xlink:show="embed"/><use x="188.941" y="39.491" xmlns:xlink="http://www.w3.org/1999/xlink" xlink:href="#r" xlink:type="simple" xlink:actuate="onLoad" xlink:show="embed"/><use x="200.068" y="39.491" xmlns:xlink="http://www.w3.org/1999/xlink" xlink:href="#s" xlink:type="simple" xlink:actuate="onLoad" xlink:show="embed"/><use x="211.318" y="39.491" xmlns:xlink="http://www.w3.org/1999/xlink" xlink:href="#p" xlink:type="simple" xlink:actuate="onLoad" xlink:show="embed"/><use x="221.95" y="39.491" xmlns:xlink="http://www.w3.org/1999/xlink" xlink:href="#t" xlink:type="simple" xlink:actuate="onLoad" xlink:show="embed"/><use x="244.476" y="39.491" xmlns:xlink="http://www.w3.org/1999/xlink" xlink:href="#u" xlink:type="simple" xlink:actuate="onLoad" xlink:show="embed"/><use x="262.972" y="39.491" xmlns:xlink="http://www.w3.org/1999/xlink" xlink:href="#v" xlink:type="simple" xlink:actuate="onLoad" xlink:show="embed"/><use x="275.903" y="39.491" xmlns:xlink="http://www.w3.org/1999/xlink" xlink:href="#o" xlink:type="simple" xlink:actuate="onLoad" xlink:show="embed"/></g></g></svg>